<?xml version="1.0" encoding="utf-8"?>
<!-- Generator: Adobe Illustrator 27.5.0, SVG Export Plug-In . SVG Version: 6.00 Build 0)  -->
<svg version="1.1" xmlns="http://www.w3.org/2000/svg" xmlns:xlink="http://www.w3.org/1999/xlink" x="0px" y="0px"
	 viewBox="0 0 3710 3710" style="enable-background:new 0 0 3710 3710;" xml:space="preserve">
<g id="Background">
	<g>
		<g>
			<rect style="fill:#FFFFFF;" width="3710" height="3710"/>
		</g>
	</g>
</g>
<g id="Illustration">
	<g>
		<path style="fill:#F4F7FA;" d="M1864.774,455.642C1147.836,433.87,526.816,968.841,432.99,1670.789
			c-102.584,767.485,462.027,1458.037,1156.759,1568.639c864.129,137.571,1702.285-658.291,1627.027-1521.683
			C3160.076,1067.254,2593.555,477.772,1864.774,455.642z"/>
		<g>
			<g>
				<g>
					<defs>
						<path id="SVGID_1_" d="M2074.55,1882.796c64.944-61.085,150.616-160.271,189.273-300.419
							c50.697-183.802-24.015-276.568-15.962-587.66c5.091-196.701,10.626-333.923,109.704-407.431
							c77.643-57.604,203.434-69.185,279.847-15.963c63.535,44.252,100.372,138.486,111.657,205.768
							c9.197,54.835,1.907,94.665,33.556,123.52c32.344,29.488,67.204,12.732,97.44,34.566
							c61.319,44.279,26.014,191.225,20.307,214.974c-63.474,264.184-306.622,442.59-413.622,519.134
							C2398.281,1732.575,2261.405,1816.933,2074.55,1882.796z"/>
					</defs>
					
						<linearGradient id="SVGID_00000054244162497993877700000016583660735734142353_" gradientUnits="userSpaceOnUse" x1="2495.2578" y1="1436.1132" x2="2486.2322" y2="2808.1763">
						<stop  offset="0.0036" style="stop-color:#E38DDD"/>
						<stop  offset="1" style="stop-color:#9571F6"/>
					</linearGradient>
					
						<use xlink:href="#SVGID_1_"  style="overflow:visible;fill:url(#SVGID_00000054244162497993877700000016583660735734142353_);"/>
					<clipPath id="SVGID_00000062895763478409314140000017751456417535010464_">
						<use xlink:href="#SVGID_1_"  style="overflow:visible;"/>
					</clipPath>
					<g style="opacity:0.5;clip-path:url(#SVGID_00000062895763478409314140000017751456417535010464_);">
						<path style="fill:#FFFFFF;" d="M2000.584,1932.401l-2.477-6.493c112.786-43.008,209.803-94.239,288.355-152.267
							c115.758-85.516,187.768-183.526,214.023-291.306c20.569-84.424,13.136-171.934,2.843-293.05
							c-8.217-96.734-22.764-164.541-35.602-224.364c-16.793-78.277-30.058-140.105-20.969-229.885
							c9.218-91.089,39.137-181.663,88.933-269.209l6.039,3.437c-49.314,86.697-78.942,176.352-88.057,266.471
							c-8.98,88.694,4.183,150.05,20.851,227.728c12.878,60.026,27.477,128.061,35.727,225.204
							c9.96,117.222,17.824,209.786-3.013,295.315c-26.652,109.403-99.545,208.74-216.646,295.248
							C2211.531,1837.633,2113.961,1889.168,2000.584,1932.401z"/>
						<path style="fill:#FFFFFF;" d="M2501.205,1121.959l-3.6-1.566c-0.645-0.28-65.219-28.798-129.759-95.063
							c-59.563-61.158-131.408-167.939-135.414-329.338l6.948-0.173c3.946,159.015,74.636,264.21,133.24,324.455
							c54.99,56.527,109.919,85.182,124.195,92.083c52.758-174.855,146.522-284.604,216.151-346.023
							c76.082-67.112,140.734-92.678,141.378-92.929l2.517,6.476c-0.635,0.246-64.357,25.487-139.55,91.883
							c-69.365,61.249-162.972,171.072-214.99,346.432L2501.205,1121.959z"/>
						<path style="fill:#FFFFFF;" d="M2515.237,1383.837l-1.428-2.083c-0.634-0.926-64.364-93.536-146.423-173.862
							c-81.513-79.793-272.359-107.346-274.275-107.616l0.963-6.88c0.485,0.068,49.158,6.994,107.368,23.821
							c53.891,15.579,127.272,43.096,170.802,85.71c75.681,74.08,135.845,158.525,145.843,172.807
							c199.917-62.145,412.855-530.494,414.989-535.237l6.337,2.853c-0.539,1.196-54.783,121.069-133.335,246.748
							c-105.75,169.198-202.791,267.784-288.419,293.024L2515.237,1383.837z"/>
						<path style="fill:#FFFFFF;" d="M2320.005,1755.745l3.447-6.007c50.994-88.829,43.422-182.057-22.513-277.093
							c-49.375-71.168-114.666-116.54-115.32-116.989l3.942-5.723c0.661,0.458,66.996,46.553,117.088,118.753
							c65.134,93.882,74.145,189.991,26.248,278.386c24.03-3.533,108.755-17.684,214.498-54.708
							c115.113-40.305,279.409-116.742,408.38-251.991l250.684-262.892l5.028,4.794l-250.684,262.892
							c-129.973,136.301-295.398,213.258-411.284,253.817c-125.528,43.93-221.684,55.821-222.641,55.935L2320.005,1755.745z"/>
					</g>
				</g>
			</g>
			<g>
				<g>
					<defs>
						<path id="SVGID_00000065774055748997051110000017952450849714608776_" d="M1797.367,2026.52
							c174.767,69.617,407.337,133.368,659.088,120.148c64.248-3.374,461.138-24.215,481.296-193.402
							c7.101-59.596-38.541-87.269-30.439-167.115c9.599-94.611,79.824-116.318,158.501-208.178
							c46.946-54.812,184.334-215.222,113.219-361.516c-42.496-87.421-157.525-165.848-262.492-180.958
							c-153.964-22.163-256.111,96.237-425.48,299.562c-150.139,180.24-152.228,238.06-262.608,365.962
							C2146.533,1795.947,2014.049,1918.948,1797.367,2026.52z"/>
					</defs>
					
						<linearGradient id="SVGID_00000078760155260539776530000014478494209349105288_" gradientUnits="userSpaceOnUse" x1="3535.7224" y1="1258.9374" x2="2483.2021" y2="1698.845">
						<stop  offset="0" style="stop-color:#FF9085"/>
						<stop  offset="1" style="stop-color:#FB6FBB"/>
					</linearGradient>
					
						<use xlink:href="#SVGID_00000065774055748997051110000017952450849714608776_"  style="overflow:visible;fill:url(#SVGID_00000078760155260539776530000014478494209349105288_);"/>
					<clipPath id="SVGID_00000036234152104234246640000011907800965796799669_">
						<use xlink:href="#SVGID_00000065774055748997051110000017952450849714608776_"  style="overflow:visible;"/>
					</clipPath>
					<g style="opacity:0.5;clip-path:url(#SVGID_00000036234152104234246640000011907800965796799669_);">
						<path style="fill:#FFFFFF;" d="M1721.179,2026.623c-47.33,0-94.624-3.218-141.892-9.665
							c-194.167-26.487-380.28-104.174-553.172-230.901l4.108-5.604c171.947,126.037,356.995,203.293,550.003,229.622
							c257.107,35.069,515.899-26.087,769.161-181.779c263.752-162.141,455.452-386.174,569.822-545.564
							c79.203-110.381,126.177-248.495,139.611-410.507l6.924,0.573c-13.54,163.284-60.941,302.568-140.89,413.985
							c-114.743,159.909-307.092,384.687-571.828,547.432C2144.884,1962.171,1932.933,2026.623,1721.179,2026.623z"/>
						<path style="fill:#FFFFFF;" d="M2662.539,1588.392l-0.947-2.975c-0.254-0.799-25.485-81.228-28.681-190.236
							c-2.952-100.707,12.81-247.188,104.654-373.118l5.611,4.095c-90.639,124.278-106.218,269.049-103.327,368.613
							c2.799,96.335,22.94,170.093,27.466,185.551c466.566-96.568,570.884-374.701,591.769-457.797
							c0.635-2.534,0.868-3.442,1.116-4.056l6.459,2.558c-0.159,0.448-0.421,1.53-0.838,3.191
							c-21.18,84.273-127.055,366.76-600.223,463.549L2662.539,1588.392z"/>
						<path style="fill:#FFFFFF;" d="M2762.654,1952.624c-103.27,0-242.518-26.27-408.764-121.077l-1.615-0.919l-0.129-1.854
							c-0.18-2.531-16.335-256.512,119.741-540.146l137.246-286.083l6.263,3.006l-137.246,286.083
							c-129.145,269.195-120.385,511.351-119.177,534.811c118.414,67.27,298.258,141.092,485.683,113.347
							c112.548-16.659,175.257-62.813,175.877-63.278l4.166,5.559c-0.631,0.473-64.438,47.533-178.571,64.525
							C2821.755,1950.226,2793.838,1952.624,2762.654,1952.624z"/>
					</g>
				</g>
			</g>
		</g>
		<g>
			
				<linearGradient id="SVGID_00000065758181606772298930000007034738168420087445_" gradientUnits="userSpaceOnUse" x1="2152.0505" y1="3104.502" x2="2105.9829" y2="2952.6023" gradientTransform="matrix(-0.993 0.1177 0.1177 0.993 4391.2251 -89.6996)">
				<stop  offset="0" style="stop-color:#444B8C"/>
				<stop  offset="0.9964" style="stop-color:#26264F"/>
			</linearGradient>
			<path style="fill:url(#SVGID_00000065758181606772298930000007034738168420087445_);" d="M2655.555,3167.98
				c5.689,9.074,4.803,13.323,3.824,15.252c-2.868,5.663-11.629,1.515-32.871,6.31c-2.491,0.563-7.237,1.717-13.393,0.93
				c-5.274-0.676-11.627-2.781-11.512-4.186c0.042-0.511,0.936-0.808,1.275-0.918c5.835-1.896,42-17.268,42-17.268L2655.555,3167.98
				z"/>
			
				<linearGradient id="SVGID_00000132059306866978206140000014639614153204757393_" gradientUnits="userSpaceOnUse" x1="2112.3367" y1="3074.9241" x2="2112.3367" y2="2830.8857" gradientTransform="matrix(-0.993 0.1177 0.1177 0.993 4391.2251 -89.6996)">
				<stop  offset="0" style="stop-color:#FFC444"/>
				<stop  offset="0.9964" style="stop-color:#F36F56"/>
			</linearGradient>
			<path style="fill:url(#SVGID_00000132059306866978206140000014639614153204757393_);" d="M2656.225,3146.656l-1.101,21.729
				c0,0-8.505,7.452-11.742-0.177c-2.329-5.487-3.878-20.771-3.878-20.771L2656.225,3146.656z"/>
			
				<linearGradient id="SVGID_00000058578407846370833300000015156033490434433439_" gradientUnits="userSpaceOnUse" x1="2202.1914" y1="3074.9236" x2="2202.1914" y2="2830.8821" gradientTransform="matrix(-0.993 0.1177 0.1177 0.993 4391.2251 -89.6996)">
				<stop  offset="0" style="stop-color:#FFC444"/>
				<stop  offset="0.9964" style="stop-color:#F36F56"/>
			</linearGradient>
			<polygon style="fill:url(#SVGID_00000058578407846370833300000015156033490434433439_);" points="2548.891,3168.576 
				2560.479,3192.251 2573.364,3188.795 2567.943,3166.317 			"/>
			
				<linearGradient id="SVGID_00000031179501080120862950000006915029445347955591_" gradientUnits="userSpaceOnUse" x1="2219.1599" y1="3084.1492" x2="2173.0918" y2="2932.249" gradientTransform="matrix(-0.993 0.1177 0.1177 0.993 4391.2251 -89.6996)">
				<stop  offset="0" style="stop-color:#444B8C"/>
				<stop  offset="0.9964" style="stop-color:#26264F"/>
			</linearGradient>
			<path style="fill:url(#SVGID_00000031179501080120862950000006915029445347955591_);" d="M2565.977,3205.384
				c5.556-8.188,11.289-8.098,11.891-13.388c0.473-4.157-2.536-8.881-6.489-10.381c-5.555-2.107-11.511,2.714-12.857,3.802
				c-9.142,7.402-5.428,17.095-14.225,22.385c-1.771,1.065-4.624,2.297-7.428,5.535c-1.191,1.376-4.141,4.782-3.155,6.813
				c1.141,2.349,6.963,1.655,12.5,0.995c6.642-0.791,9.963-1.185,12.954-3.517
				C2563.313,3214.396,2561.689,3211.703,2565.977,3205.384z"/>
			
				<linearGradient id="SVGID_00000147206630650880951040000005592406593314515382_" gradientUnits="userSpaceOnUse" x1="2091.2358" y1="2548.3381" x2="2068.8242" y2="3052.5996" gradientTransform="matrix(-0.993 0.1177 0.1177 0.993 4391.2251 -89.6996)">
				<stop  offset="0" style="stop-color:#311944"/>
				<stop  offset="1" style="stop-color:#893976"/>
			</linearGradient>
			<path style="fill:url(#SVGID_00000147206630650880951040000005592406593314515382_);" d="M2672.873,2627.909
				c2.775,49.985,0.092,93.183-4.39,128.638c-4.823,38.14-8.905,45-9.229,71.125c-0.706,56.848,18.141,63.415,26.763,126.889
				c9.521,70.088-4.56,127.588-10.149,149.541c-4.886,19.19-10.372,34.815-14.569,45.7c-5.988,6.162-16.034,4.819-26.615,3.566
				c-9.126-63.532-18.885-123.224-28.011-186.755c-20.323-95.028-40.645-190.052-60.968-285.078
				C2588.094,2663.658,2630.484,2645.785,2672.873,2627.909z"/>
			
				<linearGradient id="SVGID_00000046308943034634840620000014351297611700795023_" gradientUnits="userSpaceOnUse" x1="2091.2358" y1="2548.3381" x2="2068.8242" y2="3052.5996" gradientTransform="matrix(-0.993 0.1177 0.1177 0.993 4391.2251 -89.6996)">
				<stop  offset="0" style="stop-color:#311944"/>
				<stop  offset="1" style="stop-color:#893976"/>
			</linearGradient>
			<path style="opacity:0.3;fill:url(#SVGID_00000046308943034634840620000014351297611700795023_);" d="M2634.684,3153.367
				c-9.126-63.532-18.885-123.224-28.011-186.755c-20.323-95.028-40.645-190.052-60.968-285.078
				c42.389-17.876,84.779-35.749,127.168-53.625c0.183,3.31,0.282,6.508,0.42,9.761c-56.73,58.155-65.209,101.201-62.234,129.837
				c3.608,34.731,24.063,50.4,24.526,101.152c0.333,36.288-9.984,43.541-7.281,76.087c3.481,41.909,23.421,63.983,34.188,87.474
				c10.407,22.705,16.168,55.608,3.721,104.118c-1.744,5.047-3.413,9.572-4.915,13.463
				C2655.311,3155.961,2645.264,3154.622,2634.684,3153.367z"/>
			
				<linearGradient id="SVGID_00000146496645844486088130000015368415847756169344_" gradientUnits="userSpaceOnUse" x1="2432.8911" y1="2762.8569" x2="2022.0059" y2="2744.1802" gradientTransform="matrix(-0.993 0.1177 0.1177 0.993 4391.2251 -89.6996)">
				<stop  offset="0" style="stop-color:#311944"/>
				<stop  offset="1" style="stop-color:#893976"/>
			</linearGradient>
			<path style="fill:url(#SVGID_00000146496645844486088130000015368415847756169344_);" d="M2599.712,2682.343
				c-27.553,56.746-41.815,100.795-49.295,127.884c-4.564,16.527-8.518,33.675-7.946,55.685
				c0.701,26.966,7.866,48.578,13.662,62.315c8.236,17.533,16.071,38.129,21.864,61.648c18.791,76.274,6.048,142.463-5.031,180.838
				c-7.506,3.509-15.012,7.021-22.518,10.53c-21.605-47.614-48.86-115.44-71.402-200c-12.312-46.184-21.796-82.419-25.729-129.119
				c-4.148-49.256-3.6-127.757,28.99-224.195C2521.442,2646.065,2560.577,2664.205,2599.712,2682.343z"/>
			
				<linearGradient id="SVGID_00000183242233506955173850000002934797025175055489_" gradientUnits="userSpaceOnUse" x1="1821.6821" y1="2855.8887" x2="1251.9469" y2="3995.3569" gradientTransform="matrix(-0.993 0.1177 0.1177 0.993 4391.2251 -89.6996)">
				<stop  offset="0.0036" style="stop-color:#E38DDD"/>
				<stop  offset="1" style="stop-color:#9571F6"/>
			</linearGradient>
			<path style="fill:url(#SVGID_00000183242233506955173850000002934797025175055489_);" d="M2546.467,2257.408
				c-48.543,12.54-85.304,24.451-99.906,51.63c-15.422,28.708,14.387,46.885,26.984,106.022
				c19.288,90.538-30.491,129.083-7.716,219.968c7.674,30.623,20.22,53.76,28.669,67.425c16.989,11.661,43.751,27.276,79.06,36.436
				c51.383,13.329,75.173,1.132,142.674-0.597c110.41-2.831,129.505,27.677,177.528,3.964c48.534-23.967,80.414-80.5,67.876-102.49
				c-7.509-13.168-26.905-2.95-57.133-17.375c-38.957-18.591-35.167-48.688-67.421-71.563
				c-46.328-32.857-84.937,7.403-124.604-21.219c-40.126-28.954-51.06-106.545-38.981-154.277
				c7.89-31.177,5.351-64.159,10.492-95.904c0.428-2.637,0.592-6.801-1.403-11.342c-7.623-17.368-40.62-18.089-65.543-18.401
				C2579.032,2249.205,2550.458,2256.376,2546.467,2257.408z"/>
			
				<linearGradient id="SVGID_00000030455944468090871860000002452203173025608351_" gradientUnits="userSpaceOnUse" x1="-745.8853" y1="2634.5645" x2="-246.5275" y2="2634.5645" gradientTransform="matrix(-1 0 0 1 2213.2048 0)">
				<stop  offset="0.0036" style="stop-color:#E38DDD"/>
				<stop  offset="1" style="stop-color:#9571F6"/>
			</linearGradient>
			<path style="opacity:0.3;fill:url(#SVGID_00000030455944468090871860000002452203173025608351_);" d="M2885.119,2708.03
				c-16.054-8.877-10.198-38.302-33.996-51.692c-22.088-12.427-36.865,7.445-68.471,0.55c-40.538-8.843-41.625-47.077-80.519-56.085
				c-27.967-6.477-34.745,11.594-73.978,15.603c-39.166,4.003-91.933-7.924-127.945-46.809
				c-15.302-16.522-24.595-34.732-30.247-51.812c-7.681,34.757-16.357,68.461-4.132,117.242c7.674,30.623,20.22,53.76,28.669,67.425
				c16.989,11.661,43.751,27.276,79.06,36.435c51.382,13.329,75.173,1.133,142.674-0.596c110.41-2.831,129.505,27.677,177.528,3.964
				c31.018-15.317,55.164-43.915,65.329-68.316C2918.277,2709.13,2896.77,2714.472,2885.119,2708.03z"/>
			
				<linearGradient id="SVGID_00000025426638024053009500000000467072752412191900_" gradientUnits="userSpaceOnUse" x1="1551.3124" y1="2031.7393" x2="1498.7557" y2="2116.7573" gradientTransform="matrix(-0.9995 -0.0311 -0.0311 0.9995 4138.6138 225.5409)">
				<stop  offset="0" style="stop-color:#FFC444"/>
				<stop  offset="0.9964" style="stop-color:#F36F56"/>
			</linearGradient>
			<path style="fill:url(#SVGID_00000025426638024053009500000000467072752412191900_);" d="M2538,2172.811
				c0,0-15.283,24.603-17.331,42.444c-2.047,17.839,18.238,17.882,18.238,17.882l-1.509,11.24
				c-1.288,9.595-8.1,17.533-17.388,20.265l-8.17,2.402c0,0,51.28,14.597,81.022-3.584l-8.133-1.345
				c-11.517-1.905-20.094-11.663-20.505-23.33l-0.172-4.865C2564.052,2233.92,2576.786,2178.732,2538,2172.811z"/>
			<g>
				
					<linearGradient id="SVGID_00000110448094988482942930000006612934438878339209_" gradientUnits="userSpaceOnUse" x1="2341.5713" y1="2194.5129" x2="2235.6311" y2="2365.887" gradientTransform="matrix(-0.993 0.1177 0.1177 0.993 4391.2251 -89.6996)">
					<stop  offset="0" style="stop-color:#444B8C"/>
					<stop  offset="0.9964" style="stop-color:#26264F"/>
				</linearGradient>
				<path style="fill:url(#SVGID_00000110448094988482942930000006612934438878339209_);" d="M2457.974,2464.904l-79.062-136.377
					c-0.976-1.684-2.938-2.531-4.833-2.089l-110.616,25.85c-2.953,0.689-4.352,4.081-2.744,6.652l91.744,146.699
					c1.104,1.766,3.293,2.522,5.253,1.814l97.22-35.11L2457.974,2464.904z"/>
				
					<linearGradient id="SVGID_00000109710892706328547700000013354353573851464374_" gradientUnits="userSpaceOnUse" x1="2363.4622" y1="2215.4575" x2="2271.9526" y2="2387.271" gradientTransform="matrix(-0.9946 0.104 0.104 0.9946 4455.4814 -80.9972)">
					<stop  offset="0" style="stop-color:#FFC444"/>
					<stop  offset="0.9964" style="stop-color:#F36F56"/>
				</linearGradient>
				<path style="fill:url(#SVGID_00000109710892706328547700000013354353573851464374_);" d="M2438.524,2449.425l-64.015-110.424
					c-0.791-1.364-2.379-2.05-3.914-1.692l-89.564,20.931c-2.392,0.558-3.525,3.304-2.222,5.386l74.284,118.781
					c0.894,1.43,2.666,2.042,4.253,1.469l78.719-28.428L2438.524,2449.425z"/>
				
					<linearGradient id="SVGID_00000135678085802484738300000011432824335121562271_" gradientUnits="userSpaceOnUse" x1="2330.7512" y1="2183.52" x2="2355.9648" y2="2131.2253" gradientTransform="matrix(-0.993 0.1177 0.1177 0.993 4391.2251 -89.6996)">
					<stop  offset="0" style="stop-color:#AA80F9"/>
					<stop  offset="0.9964" style="stop-color:#6165D7"/>
				</linearGradient>
				<path style="fill:url(#SVGID_00000135678085802484738300000011432824335121562271_);" d="M2355.616,2340.269l-5.084-8.857
					c-0.707-1.23-2.132-1.857-3.516-1.546l-46.072,10.361c-2.139,0.481-3.191,2.905-2.081,4.795l5.652,9.631
					c0.724,1.234,2.172,1.846,3.561,1.506l45.501-11.135C2355.671,2344.511,2356.689,2342.136,2355.616,2340.269z"/>
				<path style="fill:#FFFFFF;" d="M2295.273,2378.242c0.073-0.009,0.14-0.024,0.212-0.04l81.107-19.141
					c1.004-0.237,1.627-1.243,1.391-2.244c-0.241-1.007-1.279-1.612-2.247-1.387l-81.107,19.141
					c-1.004,0.236-1.627,1.243-1.39,2.244C2293.459,2377.752,2294.346,2378.352,2295.273,2378.242z"/>
				<path style="fill:#FFFFFF;" d="M2300.359,2386.102c0.076-0.009,0.155-0.026,0.23-0.042l80.61-19.897
					c1.004-0.244,1.614-1.257,1.366-2.263c-0.244-1-1.245-1.608-2.259-1.363l-80.609,19.897c-1.003,0.244-1.615,1.257-1.366,2.263
					C2298.556,2385.618,2299.439,2386.21,2300.359,2386.102z"/>
				<path style="fill:#FFFFFF;" d="M2342.879,2394.851c0.094-0.011,0.188-0.03,0.28-0.055l43.826-12.092
					c0.997-0.272,1.58-1.303,1.304-2.299c-0.271-0.989-1.319-1.578-2.295-1.301l-43.827,12.092c-0.996,0.273-1.579,1.304-1.303,2.3
					C2341.11,2394.392,2341.981,2394.957,2342.879,2394.851z"/>
			</g>
			
				<linearGradient id="SVGID_00000168816587273728813380000000888592481310750865_" gradientUnits="userSpaceOnUse" x1="2363.9839" y1="2262.2388" x2="2338.564" y2="2303.3594" gradientTransform="matrix(-0.993 0.1177 0.1177 0.993 4391.2251 -89.6996)">
				<stop  offset="0" style="stop-color:#FFC444"/>
				<stop  offset="0.9964" style="stop-color:#F36F56"/>
			</linearGradient>
			<path style="fill:url(#SVGID_00000168816587273728813380000000888592481310750865_);" d="M2330.009,2469.736
				c0,0-19.565-10.514-22.611-19.05c-3.046-8.535-4.234-25.071-4.234-25.071l13.074,22.102c0,0,4.99-2.012,6.407-9.895
				c1.417-7.882,5.896-1.266,4.987,4.671C2326.724,2448.431,2330.009,2469.736,2330.009,2469.736z"/>
			
				<linearGradient id="SVGID_00000135659443755324047870000017597371316441317029_" gradientUnits="userSpaceOnUse" x1="1941.3596" y1="2915.7268" x2="1371.625" y2="4055.1934" gradientTransform="matrix(-0.993 0.1177 0.1177 0.993 4391.2251 -89.6996)">
				<stop  offset="0.0036" style="stop-color:#E38DDD"/>
				<stop  offset="1" style="stop-color:#9571F6"/>
			</linearGradient>
			<path style="fill:url(#SVGID_00000135659443755324047870000017597371316441317029_);" d="M2454.396,2299.49
				c-9.034,6.885-22.503,18.721-33.622,36.711c-31.632,51.18-12.097,100.14-40.494,121.147c-8.12,6.01-22.878,11.741-51.318,4.907
				l-9.928,6.69c0,0-6.013,66.648,73.543,60.8c79.556-5.844,108.762-108.559,108.762-108.559L2454.396,2299.49z"/>
			
				<linearGradient id="SVGID_00000150078407068686414080000016586680842196580788_" gradientUnits="userSpaceOnUse" x1="-1184.4895" y1="2455.8132" x2="-1069.6362" y2="2170.5325" gradientTransform="matrix(-0.9889 -0.1486 -0.1486 0.9889 1971.2552 -9.961)">
				<stop  offset="0" style="stop-color:#444B8C"/>
				<stop  offset="0.9964" style="stop-color:#26264F"/>
			</linearGradient>
			<path style="fill:url(#SVGID_00000150078407068686414080000016586680842196580788_);" d="M2544.442,2198.715
				c2.703-0.043,5.152-3.306,6.925-2.17c1.862,1.189,1.316,6.146-0.594,9.524c-1.568,2.768-3.922,4.236-5.222,4.906
				c1.885,3.011,4.233,7.653,4.945,13.573c1.577,13.092-5.989,23.033-9.25,28.928c-14.709,26.576,2.451,71.278,22.994,94.642
				c16.693,18.993,25.512,12.389,35.218,27.639c18.894,29.681-11.85,58.881-3.639,97.685
				c12.486,59.004,102.794,82.314,106.541,83.235c1.476,0.363,2.468,0.594,4.007,0.945c40.592,9.246,102.117,23.259,148.147-7.502
				c34.439-23.013,52.381-65.863,52.468-104.649c0.023-10.202-0.49-48.971-29.82-82.534c-4.655-5.326-32.226-36.804-72.111-39.815
				c-21.125-1.596-25.883,5.569-41.742-0.111c-21.712-7.777-34.007-28.805-41.634-41.847c-14.029-23.994-7.382-28.476-17.822-40.512
				c-20.459-23.581-47.342-7.919-69.466-29.001c-21.809-20.779-6.144-45.961-27.323-64.101
				c-21.849-18.708-66.227-15.634-76.962,4.201C2520.875,2168.793,2536.154,2198.848,2544.442,2198.715z"/>
		</g>
		
			<linearGradient id="SVGID_00000027598477754811090250000017819327044597692307_" gradientUnits="userSpaceOnUse" x1="844.0427" y1="2714.4797" x2="1955.8064" y2="2714.4797">
			<stop  offset="0.0036" style="stop-color:#26264F"/>
			<stop  offset="1" style="stop-color:#444B8C"/>
		</linearGradient>
		<path style="fill:url(#SVGID_00000027598477754811090250000017819327044597692307_);" d="M1659.184,3157.824
			c-5.759,0-11.594-0.092-17.511-0.275c-130.982-4.041-237.603-73.179-300.222-194.676c-2.738-5.311-5.365-10.685-7.876-16.094
			c-63.451,14.385-132.259,6.685-200.718-23.889c-136.768-61.083-229.667-194.182-268.652-384.912
			c-28.694-140.374-18.486-261.745-18.037-266.843l69.212,6.09c-0.098,1.14-9.759,117.749,17.224,248.431
			c34.969,169.365,111.877,281.669,228.586,333.793c57.579,25.717,107.088,29.034,147.912,21.472
			c-27.738-97.223-21.434-198.208,20.383-260.909c28.067-42.086,70.218-63.083,118.619-59.129
			c51.918,4.239,90.473,32.352,105.775,77.132c23.879,69.878-12.895,170-87.438,238.068c-20.968,19.146-43.508,34.796-67.258,46.907
			c1.304,2.689,2.648,5.377,4.027,8.052c29.268,56.788,99.445,152.705,240.606,157.061c94.965,2.919,162.703-20.969,201.351-71.032
			c73.011-94.578,27.073-254.298,26.598-255.901l66.644-19.653c2.338,7.932,56.205,195.665-38.244,318.012
			C1849.778,3124.795,1768.76,3157.822,1659.184,3157.824z M1436.728,2629.895c-20.386,0-36.601,9.419-49.438,28.667
			c-26.504,39.742-34.713,117.39-12.697,198.662c18.527-10.284,33.573-22.016,44.997-32.448
			c59.485-54.317,81.562-126.188,68.542-164.293c-4.017-11.755-13.122-27.692-45.681-30.35
			C1440.509,2629.974,1438.601,2629.895,1436.728,2629.895z"/>
		<g>
			
				<linearGradient id="SVGID_00000000944152659439915430000011387649216965023363_" gradientUnits="userSpaceOnUse" x1="117.9743" y1="1986.4474" x2="889.7172" y2="1351.9033" gradientTransform="matrix(0.9856 -0.169 0.169 0.9856 299.8127 237.9139)">
				<stop  offset="0.0036" style="stop-color:#6165D7"/>
				<stop  offset="1" style="stop-color:#AA80F9"/>
			</linearGradient>
			<path style="fill:url(#SVGID_00000000944152659439915430000011387649216965023363_);" d="M526.64,1967.117l48.349,282.029
				c1.51,8.811,3.699,17.354,6.217,25.696c-0.036-0.021-0.03-0.054-0.03-0.054s0.355,1.102,1.032,3.094
				c4.944,15.527,11.589,30.165,19.669,43.759c31.739,57.965,104.146,147.487,244.694,133.976
				c-12.893-10.538-26.449-21.81-40.11-32.139c4.523-0.481,8.924-1.833,13.47-2.612l72.143-12.367
				c115.517-19.803,192.356-127.775,172.553-243.291l-48.349-282.029L526.64,1967.117z"/>
			
				<linearGradient id="SVGID_00000059995781010178146580000018306571928973094581_" gradientUnits="userSpaceOnUse" x1="117.9743" y1="1986.4474" x2="889.7172" y2="1351.9033" gradientTransform="matrix(0.9856 -0.169 0.169 0.9856 299.8127 237.9139)">
				<stop  offset="0.0036" style="stop-color:#6165D7"/>
				<stop  offset="1" style="stop-color:#AA80F9"/>
			</linearGradient>
			<path style="opacity:0.2;fill:url(#SVGID_00000059995781010178146580000018306571928973094581_);" d="M526.64,1967.117
				l48.349,282.029c1.51,8.811,3.699,17.354,6.217,25.696c-0.036-0.021-0.03-0.054-0.03-0.054s0.355,1.102,1.032,3.094
				c4.944,15.527,11.589,30.165,19.669,43.759c31.739,57.965,104.146,147.487,244.694,133.976
				c-12.893-10.538-26.449-21.81-40.11-32.139c4.523-0.481,8.924-1.833,13.47-2.612l72.143-12.367
				c115.517-19.803,192.356-127.775,172.553-243.291l-48.349-282.029L526.64,1967.117z"/>
			<g>
				
					<linearGradient id="SVGID_00000098192719420578169760000008716318963959440317_" gradientUnits="userSpaceOnUse" x1="205.7879" y1="1417.3695" x2="-53.4957" y2="1852.7346" gradientTransform="matrix(0.9856 -0.169 0.169 0.9856 299.8127 237.9139)">
					<stop  offset="0" style="stop-color:#EBEFF2"/>
					<stop  offset="0.4737" style="stop-color:#D2D9E1"/>
					<stop  offset="0.9946" style="stop-color:#B7C0CE"/>
				</linearGradient>
				<path style="fill:url(#SVGID_00000098192719420578169760000008716318963959440317_);" d="M588.71,1730.898l-0.79,0.135
					l-0.79,0.135c-15.136,2.595-24.05,16.745-21.455,31.882l54.392,317.28c2.595,15.136,15.909,26.654,31.045,24.059l0.79-0.135
					l0.79-0.135c15.136-2.595,24.755-18.043,22.16-33.179l-54.392-317.28C617.865,1738.522,603.845,1728.303,588.71,1730.898z"/>
				
					<linearGradient id="SVGID_00000105413977890067773660000016842969993752325560_" gradientUnits="userSpaceOnUse" x1="503.2123" y1="1416.8955" x2="243.5848" y2="1852.8379" gradientTransform="matrix(0.9856 -0.169 0.169 0.9856 299.8127 237.9139)">
					<stop  offset="0" style="stop-color:#EBEFF2"/>
					<stop  offset="0.4737" style="stop-color:#D2D9E1"/>
					<stop  offset="0.9946" style="stop-color:#B7C0CE"/>
				</linearGradient>
				<path style="fill:url(#SVGID_00000105413977890067773660000016842969993752325560_);" d="M881.861,1680.642l-0.79,0.135
					l-0.79,0.135c-15.136,2.595-26.158,17.107-23.563,32.243l54.392,317.28c2.595,15.136,18.017,26.292,33.153,23.697l0.79-0.135
					l0.79-0.135c15.132-2.594,26.07-18.274,23.476-33.405l-54.392-317.28C912.333,1688.046,896.992,1678.048,881.861,1680.642z"/>
			</g>
			<g>
				
					<linearGradient id="SVGID_00000183222500066704078750000013588518408313584045_" gradientUnits="userSpaceOnUse" x1="178.7296" y1="1824.0781" x2="176.3461" y2="1885.4517" gradientTransform="matrix(0.9856 -0.169 0.169 0.9856 299.8127 237.9139)">
					<stop  offset="0" style="stop-color:#444B8C"/>
					<stop  offset="0.9964" style="stop-color:#26264F"/>
				</linearGradient>
				<path style="opacity:0.8;fill:url(#SVGID_00000183222500066704078750000013588518408313584045_);" d="M923.731,2001.258
					c1.945,11.346-5.676,22.121-17.022,24.066l-232.835,39.915c-11.346,1.945-22.121-5.676-24.066-17.022l0,0
					c-1.945-11.346,5.676-22.121,17.022-24.066l232.835-39.915C911.011,1982.291,921.786,1989.912,923.731,2001.258
					L923.731,2001.258z"/>
				
					<linearGradient id="SVGID_00000116216846514371511330000004860697531151046317_" gradientUnits="userSpaceOnUse" x1="178.726" y1="1921.3513" x2="176.3426" y2="1982.725" gradientTransform="matrix(0.9856 -0.169 0.169 0.9856 299.8127 237.9139)">
					<stop  offset="0" style="stop-color:#444B8C"/>
					<stop  offset="0.9964" style="stop-color:#26264F"/>
				</linearGradient>
				<path style="opacity:0.8;fill:url(#SVGID_00000116216846514371511330000004860697531151046317_);" d="M940.167,2097.132
					c1.945,11.346-5.676,22.121-17.022,24.066l-232.835,39.915c-11.346,1.945-22.121-5.676-24.066-17.022l0,0
					c-1.945-11.346,5.676-22.121,17.022-24.066l232.835-39.915C927.447,2078.164,938.222,2085.785,940.167,2097.132
					L940.167,2097.132z"/>
				
					<linearGradient id="SVGID_00000048461302165727924710000005938287596522720673_" gradientUnits="userSpaceOnUse" x1="178.7225" y1="2018.6245" x2="176.339" y2="2079.998" gradientTransform="matrix(0.9856 -0.169 0.169 0.9856 299.8127 237.9139)">
					<stop  offset="0" style="stop-color:#444B8C"/>
					<stop  offset="0.9964" style="stop-color:#26264F"/>
				</linearGradient>
				<path style="opacity:0.8;fill:url(#SVGID_00000048461302165727924710000005938287596522720673_);" d="M956.603,2193.005
					c1.945,11.346-5.676,22.121-17.022,24.066l-232.835,39.915c-11.346,1.945-22.121-5.676-24.066-17.022l0,0
					c-1.945-11.346,5.676-22.121,17.022-24.066l232.835-39.915C943.883,2174.037,954.658,2181.658,956.603,2193.005
					L956.603,2193.005z"/>
			</g>
			
				<linearGradient id="SVGID_00000072242032526227949400000016192189799039760019_" gradientUnits="userSpaceOnUse" x1="195.4641" y1="1723.7111" x2="189.8402" y2="1868.5253" gradientTransform="matrix(0.9856 -0.169 0.169 0.9856 299.8127 237.9139)">
				<stop  offset="0.0036" style="stop-color:#6165D7"/>
				<stop  offset="1" style="stop-color:#AA80F9"/>
			</linearGradient>
			<path style="fill:url(#SVGID_00000072242032526227949400000016192189799039760019_);" d="M1079.682,1897.718
				c0,0-27.928-23.669-48.517-34.564c-0.004,0.002,0.05,0.342,0.048,0.344c-6.45-3.814-14.167-5.124-22.13-3.759l-485.075,83.157
				c-17.835,3.057-29.929,19.318-26.872,37.152l0.115,0.089c0.366,2.135,1.3,5.536,1.681,5.536h-0.008c0,0-0.007,0.448,0.012,0.49
				c1.326,3.452,3.205,6.758,5.515,9.494c4.349,5.929,11.554,13.715,22.836,20.058c0.022,0.011,0.035,0.07,0.057,0.082
				c1.627,1.17,3.361,2.206,5.18,3.063c17.594,10.667,24.499,19.234,38.462,19.532c6.54,0.141,100.653-25.642,206.328-54.332
				l259.95-44.563c17.297-2.965,28.947-19.542,26.854-36.775C1074.154,1899.872,1079.682,1897.718,1079.682,1897.718z"/>
			
				<linearGradient id="SVGID_00000121958388871996749410000001190717608956439990_" gradientUnits="userSpaceOnUse" x1="141.5137" y1="1459.1265" x2="-14.9829" y2="1721.901" gradientTransform="matrix(0.9856 -0.169 0.169 0.9856 299.8127 237.9139)">
				<stop  offset="0" style="stop-color:#EBEFF2"/>
				<stop  offset="0.4737" style="stop-color:#D2D9E1"/>
				<stop  offset="0.9946" style="stop-color:#B7C0CE"/>
			</linearGradient>
			<path style="fill:url(#SVGID_00000121958388871996749410000001190717608956439990_);" d="M601.315,1731.66
				c0,0,58.154,21.806,62.208,51.094C626.936,1784.432,636,1960.722,636,1960.722l-42.926-30.362
				C593.075,1930.36,546.739,1725.079,601.315,1731.66z"/>
			
				<linearGradient id="SVGID_00000048477043556203379310000012047295872853776793_" gradientUnits="userSpaceOnUse" x1="438.9462" y1="1459.1371" x2="282.4496" y2="1721.9117" gradientTransform="matrix(0.9856 -0.169 0.169 0.9856 299.8127 237.9139)">
				<stop  offset="0" style="stop-color:#EBEFF2"/>
				<stop  offset="0.4737" style="stop-color:#D2D9E1"/>
				<stop  offset="0.9946" style="stop-color:#B7C0CE"/>
			</linearGradient>
			<path style="fill:url(#SVGID_00000048477043556203379310000012047295872853776793_);" d="M894.467,1681.404
				c0,0,58.154,21.806,62.208,51.094c-36.587,1.678-27.523,177.968-27.523,177.968l-42.926-30.362
				C886.226,1880.104,839.89,1674.823,894.467,1681.404z"/>
			<g>
				<g>
					<g>
						
							<linearGradient id="SVGID_00000108291576986298790460000009350160150628434834_" gradientUnits="userSpaceOnUse" x1="72.4098" y1="1603.7506" x2="54.6711" y2="2060.5142" gradientTransform="matrix(0.9856 -0.169 0.169 0.9856 299.8127 237.9139)">
							<stop  offset="0" style="stop-color:#EBEFF2"/>
							<stop  offset="0.4737" style="stop-color:#D2D9E1"/>
							<stop  offset="0.9946" style="stop-color:#B7C0CE"/>
						</linearGradient>
						<path style="fill:url(#SVGID_00000108291576986298790460000009350160150628434834_);" d="M715.746,2103.883
							c2.593,15.128-7.568,29.495-22.696,32.088l0,0c-15.128,2.594-29.495-7.568-32.088-22.696l-54.59-318.436
							c-2.593-15.128,7.568-29.495,22.696-32.088l0,0c15.128-2.594,29.495,7.568,32.088,22.696L715.746,2103.883z"/>
						
							<linearGradient id="SVGID_00000010296686226821345450000005159881642681648012_" gradientUnits="userSpaceOnUse" x1="247.3331" y1="1461.9114" x2="-6.5672" y2="1888.2372" gradientTransform="matrix(0.9856 -0.169 0.169 0.9856 299.8127 237.9139)">
							<stop  offset="0" style="stop-color:#EBEFF2"/>
							<stop  offset="0.4737" style="stop-color:#D2D9E1"/>
							<stop  offset="0.9946" style="stop-color:#B7C0CE"/>
						</linearGradient>
						<path style="opacity:0.3;fill:url(#SVGID_00000010296686226821345450000005159881642681648012_);" d="M664.406,1783.845
							l54.392,317.28c2.595,15.136-8.457,28.356-23.592,30.951l0.681-0.117l-63.395-369.796l-0.681,0.117
							C646.946,1759.686,661.811,1768.709,664.406,1783.845z"/>
					</g>
					<g>
						
							<linearGradient id="SVGID_00000122714113538267240840000013395870005043120279_" gradientUnits="userSpaceOnUse" x1="2162.2598" y1="1603.2144" x2="2144.521" y2="2059.9768" gradientTransform="matrix(-0.9856 0.169 0.169 0.9856 2785.8252 -187.8053)">
							<stop  offset="0" style="stop-color:#EBEFF2"/>
							<stop  offset="0.4737" style="stop-color:#D2D9E1"/>
							<stop  offset="0.9946" style="stop-color:#B7C0CE"/>
						</linearGradient>
						<path style="fill:url(#SVGID_00000122714113538267240840000013395870005043120279_);" d="M955.623,1734.966
							c-2.594-15.128-16.96-25.29-32.088-22.696l0,0c-15.128,2.594-25.29,16.96-22.696,32.088l54.59,318.436
							c2.594,15.128,16.96,25.29,32.088,22.696l0,0c15.128-2.594,25.29-16.96,22.696-32.088L955.623,1734.966z"/>
						
							<linearGradient id="SVGID_00000126292547522117117320000015544952827591862450_" gradientUnits="userSpaceOnUse" x1="2334.176" y1="1461.3411" x2="2080.323" y2="1887.5875" gradientTransform="matrix(-0.9856 0.169 0.169 0.9856 2785.8252 -187.8053)">
							<stop  offset="0" style="stop-color:#EBEFF2"/>
							<stop  offset="0.4737" style="stop-color:#D2D9E1"/>
							<stop  offset="0.9946" style="stop-color:#B7C0CE"/>
						</linearGradient>
						<path style="opacity:0.3;fill:url(#SVGID_00000126292547522117117320000015544952827591862450_);" d="M900.664,1743.343
							l54.392,317.28c2.595,15.136,16.585,24.063,31.72,21.469l0.153-0.026l-63.395-369.796l-0.153,0.026
							C908.246,1714.89,898.07,1728.207,900.664,1743.343z"/>
					</g>
				</g>
				
					<linearGradient id="SVGID_00000047764607316065684170000010126424852051163030_" gradientUnits="userSpaceOnUse" x1="221.569" y1="1831.7621" x2="197.7733" y2="2444.4885" gradientTransform="matrix(0.9856 -0.169 0.169 0.9856 299.8127 237.9139)">
					<stop  offset="0.0036" style="stop-color:#6165D7"/>
					<stop  offset="1" style="stop-color:#AA80F9"/>
				</linearGradient>
				<path style="fill:url(#SVGID_00000047764607316065684170000010126424852051163030_);" d="M570.762,1998.325l48.174,281.009
					c19.803,115.516,128.579,192.718,244.096,172.914l72.143-12.368c115.517-19.803,193.202-128.97,173.399-244.486l-48.174-281.009
					L570.762,1998.325z"/>
				
					<linearGradient id="SVGID_00000023963075735933518430000006818474124735427475_" gradientUnits="userSpaceOnUse" x1="177.3641" y1="1998.0697" x2="229.0098" y2="1732.6675" gradientTransform="matrix(0.9856 -0.169 0.169 0.9856 299.8127 237.9139)">
					<stop  offset="0.0036" style="stop-color:#6165D7"/>
					<stop  offset="1" style="stop-color:#AA80F9"/>
				</linearGradient>
				<path style="fill:url(#SVGID_00000023963075735933518430000006818474124735427475_);" d="M1092.724,1917.899
					c3.057,17.834-8.922,34.771-26.756,37.828l-486.686,83.434c-17.834,3.057-34.771-8.922-37.828-26.756l-0.081-0.472
					c-3.057-17.834,8.922-34.771,26.756-37.828l486.686-83.433c17.835-3.057,34.771,8.922,37.828,26.756L1092.724,1917.899z"/>
				<g>
					
						<linearGradient id="SVGID_00000057865468441398402730000007868715414728751490_" gradientUnits="userSpaceOnUse" x1="216.9427" y1="1862.2939" x2="214.5592" y2="1923.6675" gradientTransform="matrix(0.9856 -0.169 0.169 0.9856 299.8127 237.9139)">
						<stop  offset="0" style="stop-color:#444B8C"/>
						<stop  offset="0.9964" style="stop-color:#26264F"/>
					</linearGradient>
					<path style="opacity:0.8;fill:url(#SVGID_00000057865468441398402730000007868715414728751490_);" d="M967.853,2032.466
						c1.945,11.346-5.676,22.121-17.022,24.066l-232.835,39.916c-11.346,1.945-22.121-5.676-24.066-17.022l0,0
						c-1.945-11.346,5.676-22.121,17.022-24.066l232.835-39.915C955.133,2013.499,965.908,2021.12,967.853,2032.466
						L967.853,2032.466z"/>
					
						<linearGradient id="SVGID_00000076571876366527656740000015006110303750943649_" gradientUnits="userSpaceOnUse" x1="216.9391" y1="1959.5671" x2="214.5556" y2="2020.9408" gradientTransform="matrix(0.9856 -0.169 0.169 0.9856 299.8127 237.9139)">
						<stop  offset="0" style="stop-color:#444B8C"/>
						<stop  offset="0.9964" style="stop-color:#26264F"/>
					</linearGradient>
					<path style="opacity:0.8;fill:url(#SVGID_00000076571876366527656740000015006110303750943649_);" d="M984.288,2128.339
						c1.945,11.346-5.676,22.121-17.022,24.066l-232.835,39.915c-11.346,1.945-22.121-5.676-24.066-17.022l0,0
						c-1.945-11.346,5.676-22.121,17.022-24.066l232.835-39.916C971.568,2109.372,982.343,2116.993,984.288,2128.339
						L984.288,2128.339z"/>
					
						<linearGradient id="SVGID_00000173124209566232386200000003526535422567729795_" gradientUnits="userSpaceOnUse" x1="216.9357" y1="2056.8403" x2="214.5522" y2="2118.2139" gradientTransform="matrix(0.9856 -0.169 0.169 0.9856 299.8127 237.9139)">
						<stop  offset="0" style="stop-color:#444B8C"/>
						<stop  offset="0.9964" style="stop-color:#26264F"/>
					</linearGradient>
					<path style="opacity:0.8;fill:url(#SVGID_00000173124209566232386200000003526535422567729795_);" d="M1000.724,2224.212
						c1.945,11.346-5.676,22.121-17.022,24.066l-232.835,39.915c-11.346,1.945-22.121-5.676-24.066-17.022l0,0
						c-1.945-11.346,5.676-22.121,17.022-24.066l232.835-39.916C988.004,2205.245,998.779,2212.866,1000.724,2224.212
						L1000.724,2224.212z"/>
				</g>
				<g>
					
						<linearGradient id="SVGID_00000085945728370356906240000017725741550286450068_" gradientUnits="userSpaceOnUse" x1="216.1144" y1="1871.1387" x2="214.2042" y2="1920.3253" gradientTransform="matrix(0.9856 -0.169 0.169 0.9856 299.8127 237.9139)">
						<stop  offset="0" style="stop-color:#444B8C"/>
						<stop  offset="0.9964" style="stop-color:#26264F"/>
					</linearGradient>
					<path style="opacity:0.8;fill:url(#SVGID_00000085945728370356906240000017725741550286450068_);" d="M967.537,2038.407
						c-1.105,9.126-8.113,16.652-17.669,18.29l-231.138,39.625c-11.67,2-22.673-5.312-24.673-16.982
						c-1-5.835,0.509-11.244,3.687-15.735c2.008-2.84,4.728-5.083,7.942-6.649c-0.287,2.051-0.29,3.893,0.072,6.007
						c2.001,11.67,13.049,19.248,24.719,17.247l231.138-39.625C963.728,2040.222,965.698,2039.361,967.537,2038.407z"/>
					
						<linearGradient id="SVGID_00000018946175723916507960000011944307530828299706_" gradientUnits="userSpaceOnUse" x1="216.1116" y1="1968.3844" x2="214.1999" y2="2017.6085" gradientTransform="matrix(0.9856 -0.169 0.169 0.9856 299.8127 237.9139)">
						<stop  offset="0" style="stop-color:#444B8C"/>
						<stop  offset="0.9964" style="stop-color:#26264F"/>
					</linearGradient>
					<path style="opacity:0.8;fill:url(#SVGID_00000018946175723916507960000011944307530828299706_);" d="M983.972,2134.28
						c-1.105,9.126-8.113,16.652-17.669,18.29l-231.138,39.624c-11.67,2.001-22.676-5.329-24.676-16.999
						c-1-5.835,0.508-11.253,3.685-15.744c2.008-2.84,4.727-5.088,7.941-6.654c-0.287,2.051-0.288,3.908,0.075,6.022
						c2.001,11.67,13.051,19.263,24.721,17.263l231.139-39.625C980.164,2136.095,982.134,2135.234,983.972,2134.28z"/>
					
						<linearGradient id="SVGID_00000171689080285669009320000017556501480542968964_" gradientUnits="userSpaceOnUse" x1="216.1088" y1="2065.6301" x2="214.1956" y2="2114.8918" gradientTransform="matrix(0.9856 -0.169 0.169 0.9856 299.8127 237.9139)">
						<stop  offset="0" style="stop-color:#444B8C"/>
						<stop  offset="0.9964" style="stop-color:#26264F"/>
					</linearGradient>
					<path style="opacity:0.8;fill:url(#SVGID_00000171689080285669009320000017556501480542968964_);" d="M1000.408,2230.153
						c-1.105,9.126-8.113,16.652-17.669,18.29l-231.138,39.625c-11.67,2.001-22.679-5.347-24.679-17.017
						c-1-5.835,0.506-11.262,3.684-15.753c2.008-2.84,4.726-5.092,7.94-6.658c-0.287,2.051-0.285,3.924,0.077,6.038
						c2.001,11.67,13.054,19.279,24.724,17.278l231.138-39.625C996.599,2231.969,998.57,2231.107,1000.408,2230.153z"/>
				</g>
			</g>
		</g>
		<g>
			<path style="opacity:0.75;fill:#F4F7FA;" d="M2615.923,1513.618c0-377.056-321.015-682.72-717.005-682.72
				c-395.992,0-717.005,305.664-717.005,682.72c0,228.825,118.237,431.349,299.707,555.222
				c76.988,52.552,123.679,139.17,123.679,232.383v52.246c0,113.518,92.025,205.543,205.54,205.543h176.156
				c113.517,0,205.54-92.025,205.54-205.543v-52.246c0-93.212,46.692-179.831,123.678-232.383
				C2497.687,1944.967,2615.923,1742.443,2615.923,1513.618z"/>
			
				<linearGradient id="SVGID_00000166634351353091460900000009181200028861442717_" gradientUnits="userSpaceOnUse" x1="1883.9825" y1="2982.8909" x2="1896.7166" y2="2881.0188">
				<stop  offset="0.0036" style="stop-color:#26264F"/>
				<stop  offset="1" style="stop-color:#444B8C"/>
			</linearGradient>
			<path style="fill:url(#SVGID_00000166634351353091460900000009181200028861442717_);" d="M2057.97,2863.41
				c0,46.506-71.209,84.206-159.052,84.206s-159.053-37.7-159.053-84.206c0-46.504,71.21-84.205,159.053-84.205
				S2057.97,2816.906,2057.97,2863.41z"/>
			
				<linearGradient id="SVGID_00000183940000835115997790000016886097561190121622_" gradientUnits="userSpaceOnUse" x1="1831.6112" y1="2890.0427" x2="1958.9531" y2="2660.8271">
				<stop  offset="0.0036" style="stop-color:#26264F"/>
				<stop  offset="1" style="stop-color:#444B8C"/>
			</linearGradient>
			<path style="fill:url(#SVGID_00000183940000835115997790000016886097561190121622_);" d="M1687.597,2712.986v85.991
				c0,29.095,16.559,55.752,42.818,68.275c36.456,17.385,97.07,36.466,185.16,34.209c71.467-1.831,118.07-13.503,147.697-25.763
				c28.622-11.844,46.968-40.148,46.968-71.125v-47.579L1687.597,2712.986z"/>
			
				<linearGradient id="SVGID_00000181796753338338187570000007983188492833098629_" gradientUnits="userSpaceOnUse" x1="1687.5967" y1="2781.4185" x2="2110.2395" y2="2781.4185">
				<stop  offset="0.0036" style="stop-color:#26264F"/>
				<stop  offset="1" style="stop-color:#444B8C"/>
			</linearGradient>
			<path style="opacity:0.3;fill:url(#SVGID_00000181796753338338187570000007983188492833098629_);" d="M1687.597,2788.308
				c6.441,6.261,13.902,11.574,22.28,15.569c40.9,19.504,308.803,63.086,373.423,38.805c8.395-3.152,15.945-7.371,22.556-12.459
				c2.826-8.121,4.383-16.765,4.383-25.65v-47.579l-422.643-44.009V2788.308z"/>
			
				<linearGradient id="SVGID_00000029748527839086634580000000424048701686203780_" gradientUnits="userSpaceOnUse" x1="1843.7325" y1="2827.4072" x2="1969.4824" y2="2585.4587">
				<stop  offset="0.0036" style="stop-color:#26264F"/>
				<stop  offset="1" style="stop-color:#444B8C"/>
			</linearGradient>
			<path style="fill:url(#SVGID_00000029748527839086634580000000424048701686203780_);" d="M1706.36,2654.477
				c-23.805-2.479-44.517,16.191-44.517,40.123v2.437c0,32.64,18.573,62.545,48.034,76.595
				c40.9,19.505,308.803,63.087,373.423,38.807c32.535-12.224,52.694-40.155,52.694-74.906v-1.962
				c0-20.663-15.612-37.981-36.162-40.122L1706.36,2654.477z"/>
			
				<linearGradient id="SVGID_00000047741628526979177010000009820237791103517603_" gradientUnits="userSpaceOnUse" x1="1668.6616" y1="2710.187" x2="2128.9653" y2="2710.187">
				<stop  offset="0.0036" style="stop-color:#26264F"/>
				<stop  offset="1" style="stop-color:#444B8C"/>
			</linearGradient>
			<path style="opacity:0.3;fill:url(#SVGID_00000047741628526979177010000009820237791103517603_);" d="M2099.832,2695.449
				l-393.472-40.972c-15.525-1.616-29.692,5.793-37.699,17.759c7.904,18.625,22.297,34.204,41.215,43.227
				c40.9,19.505,320.213,68.768,373.423,43.695c20.715-9.762,36.96-26.24,45.665-46.271
				C2122.48,2703.377,2112.044,2696.721,2099.832,2695.449z"/>
			
				<linearGradient id="SVGID_00000051345238683740991540000017906247362971352494_" gradientUnits="userSpaceOnUse" x1="1661.8429" y1="2627.0181" x2="2135.9939" y2="2627.0181">
				<stop  offset="0.0036" style="stop-color:#26264F"/>
				<stop  offset="1" style="stop-color:#444B8C"/>
			</linearGradient>
			<path style="fill:url(#SVGID_00000051345238683740991540000017906247362971352494_);" d="M1690.965,2515.156
				c-16.085,0-29.122,13.037-29.122,29.123v67.349c0,32.64,18.573,62.547,48.034,76.596c40.9,19.505,320.213,68.769,373.423,43.695
				c31.439-14.814,52.694-45.043,52.694-79.793V2544.28c0-16.086-13.04-29.123-29.124-29.123H1690.965z"/>
			
				<linearGradient id="SVGID_00000127026960386720206870000010708090576905616304_" gradientUnits="userSpaceOnUse" x1="1887.1422" y1="2591.252" x2="1933.834" y2="2372.6501">
				<stop  offset="0.0036" style="stop-color:#26264F"/>
				<stop  offset="1" style="stop-color:#444B8C"/>
			</linearGradient>
			<path style="fill:url(#SVGID_00000127026960386720206870000010708090576905616304_);" d="M2130.13,2536.123
				c0,30.189-103.517,54.663-231.212,54.663s-231.213-24.474-231.213-54.663c0-30.191,103.519-54.666,231.213-54.666
				S2130.13,2505.932,2130.13,2536.123z"/>
			
				<linearGradient id="SVGID_00000164487676922537881960000007832590995670673341_" gradientUnits="userSpaceOnUse" x1="1797.4751" y1="1371.4764" x2="2723.8354" y2="2842.1929">
				<stop  offset="0" style="stop-color:#FCB148"/>
				<stop  offset="0.0521" style="stop-color:#FDBA46"/>
				<stop  offset="0.1424" style="stop-color:#FFC244"/>
				<stop  offset="0.3183" style="stop-color:#FFC444"/>
				<stop  offset="0.4849" style="stop-color:#FDB946"/>
				<stop  offset="0.7754" style="stop-color:#F99C4D"/>
				<stop  offset="0.8658" style="stop-color:#F8924F"/>
				<stop  offset="1" style="stop-color:#F8924F"/>
			</linearGradient>
			<path style="fill:url(#SVGID_00000164487676922537881960000007832590995670673341_);" d="M2615.923,1513.618
				c0-377.056-321.015-682.72-717.005-682.72c-395.992,0-717.005,305.664-717.005,682.72c0,228.825,118.237,431.349,299.707,555.222
				c76.988,52.552,123.679,139.17,123.679,232.383v52.246c0,113.518,92.025,205.543,205.54,205.543h176.156
				c113.517,0,205.54-92.025,205.54-205.543v-52.246c0-93.212,46.692-179.831,123.678-232.383
				C2497.687,1944.967,2615.923,1742.443,2615.923,1513.618z"/>
			<ellipse style="opacity:0.5;fill:#F4F7FA;" cx="1898.918" cy="2493.018" rx="169.183" ry="39.999"/>
			
				<linearGradient id="SVGID_00000030473595809954556090000009913766885701075371_" gradientUnits="userSpaceOnUse" x1="1829.9829" y1="1039.9645" x2="1645.3373" y2="2561.6965">
				<stop  offset="0" style="stop-color:#FCB148"/>
				<stop  offset="0.0521" style="stop-color:#FDBA46"/>
				<stop  offset="0.1424" style="stop-color:#FFC244"/>
				<stop  offset="0.3183" style="stop-color:#FFC444"/>
				<stop  offset="0.4849" style="stop-color:#FDB946"/>
				<stop  offset="0.7754" style="stop-color:#F99C4D"/>
				<stop  offset="0.8658" style="stop-color:#F8924F"/>
				<stop  offset="1" style="stop-color:#F8924F"/>
			</linearGradient>
			<path style="opacity:0.3;fill:url(#SVGID_00000030473595809954556090000009913766885701075371_);" d="M1911.928,2052.124
				c15.361-263.142,458.972-324.724,457.07-559.727c-1.17-144.736-177.449-252.224-215.089-273.753
				c-277.369-158.638-618.766,24.556-689.273-105.1c-17.556-32.282-9.325-67.421-4.637-87.434
				c7.086-30.246,23.126-58.416,46.919-84.183c-195.689,121.905-325.006,332.401-325.006,571.691
				c0,228.825,118.237,431.349,299.707,555.222c76.988,52.552,123.679,139.17,123.679,232.385v52.243
				c0,113.518,92.025,205.543,205.54,205.543h176.156c113.517,0,205.54-92.025,205.54-205.543V2311.7
				c-24.244,18.58-52.089,31.537-82.622,31.289C2003.963,2342.114,1904.286,2183.073,1911.928,2052.124z"/>
			<ellipse style="opacity:0.44;fill:#F4F7FA;" cx="1910.386" cy="1540.236" rx="616.997" ry="595.027"/>
			<polygon style="fill:#FFFFFF;" points="2132.618,1078.797 1652.407,1607.484 1849.791,1606.256 1689.773,2003.952 
				2169.065,1472.43 1990.925,1472.925 			"/>
		</g>
		<g>
			<g>
				<g>
					
						<linearGradient id="SVGID_00000119816047677060527940000009916104800438888886_" gradientUnits="userSpaceOnUse" x1="424.907" y1="12597.8018" x2="-122.1505" y2="14067.5068" gradientTransform="matrix(0.2845 0.9587 0.9587 -0.2845 5441.478 -7714.2354)">
						<stop  offset="0.0036" style="stop-color:#6165D7"/>
						<stop  offset="1" style="stop-color:#AA80F9"/>
					</linearGradient>
					<polygon style="fill:url(#SVGID_00000119816047677060527940000009916104800438888886_);" points="1215.164,1390.852 
						1088.859,1609.702 873.29,1494.975 911.166,1636.513 1126.708,1751.141 1253.039,1532.39 					"/>
				</g>
				
					<linearGradient id="SVGID_00000115496158060024293290000001820026658792827790_" gradientUnits="userSpaceOnUse" x1="1559.9878" y1="1963.1581" x2="1012.9171" y2="3432.8989">
					<stop  offset="0.0036" style="stop-color:#6165D7"/>
					<stop  offset="1" style="stop-color:#AA80F9"/>
				</linearGradient>
				<path style="fill:url(#SVGID_00000115496158060024293290000001820026658792827790_);" d="M2661.222,1053.489l-165.925-66.795
					c-47.524-62.059-106.097-116.66-174.527-161.135c-339.253-220.417-809.92-118.075-1049.229,228.093
					c-99.401,143.716-146.545,309.804-136.636,476.219c1.85,32.391,5.933,64.836,12.193,97.117
					c5.391,27.655-13.173,55.417-41.479,62.059c-28.255,6.641-55.527-10.398-60.918-38.052
					c-4.519-23.462-8.057-46.925-10.614-70.442c-21.775-202.78,31.193-407.084,152.316-582.263
					c272.405-394.073,808.232-510.569,1194.414-259.667c47.904,31.138,91.507,66.631,130.65,105.772
					C2573.032,906.018,2623.334,976.677,2661.222,1053.489z"/>
			</g>
			<g>
				<g>
					
						<linearGradient id="SVGID_00000044168822765364215990000009801405989024623281_" gradientUnits="userSpaceOnUse" x1="-3443.1638" y1="-3744.3645" x2="-3122.9355" y2="-3744.3645" gradientTransform="matrix(-0.2845 -0.9587 -0.9587 0.2845 -1813.0138 -690.6609)">
						<stop  offset="0.0036" style="stop-color:#6165D7"/>
						<stop  offset="1" style="stop-color:#AA80F9"/>
					</linearGradient>
					<polygon style="fill:url(#SVGID_00000044168822765364215990000009801405989024623281_);" points="2583.091,1596.426 
						2709.396,1377.576 2924.965,1492.303 2887.09,1350.765 2671.548,1236.137 2545.216,1454.888 					"/>
				</g>
				
					<linearGradient id="SVGID_00000098929382955869540590000016737324084396865440_" gradientUnits="userSpaceOnUse" x1="1139.8033" y1="1838.8794" x2="2768.9429" y2="1838.8794">
					<stop  offset="0.0036" style="stop-color:#6165D7"/>
					<stop  offset="1" style="stop-color:#AA80F9"/>
				</linearGradient>
				<path style="fill:url(#SVGID_00000098929382955869540590000016737324084396865440_);" d="M2611.901,1988.997
					c-272.458,394.073-808.288,510.515-1194.467,259.612c-47.906-31.084-91.51-66.577-130.65-105.717
					c-60.043-60.154-109.42-128.907-146.981-203.596l175.617,77.029c45.182,55.581,99.51,104.738,162.114,145.402
					c339.2,220.417,809.867,118.075,1049.174-228.093c99.402-143.716,146.545-309.805,136.639-476.273
					c-1.853-32.391-5.936-64.781-12.195-97.063c-5.388-27.655,13.173-55.417,41.482-62.059
					c28.253-6.641,55.525,10.398,60.915,38.052c4.519,23.462,8.057,46.925,10.616,70.442
					C2785.939,1609.513,2732.972,1813.817,2611.901,1988.997z"/>
			</g>
		</g>
	</g>
</g>
</svg>
