<svg xmlns="http://www.w3.org/2000/svg" xmlns:xlink="http://www.w3.org/1999/xlink" width="500" zoomAndPan="magnify" viewBox="0 0 375 374.999991" height="500" preserveAspectRatio="xMidYMid meet" version="1.0"><defs><g/><clipPath id="a8e89dd1e5"><path d="M 129.734375 160.667969 L 180.714844 160.667969 L 180.714844 204.257812 L 129.734375 204.257812 Z M 129.734375 160.667969 " clip-rule="nonzero"/></clipPath><clipPath id="fde324ff16"><path d="M 178.542969 197.082031 L 187.671875 197.082031 L 187.671875 204.257812 L 178.542969 204.257812 Z M 178.542969 197.082031 " clip-rule="nonzero"/></clipPath><clipPath id="c16efdf69d"><path d="M 194.300781 160.667969 L 245.234375 160.667969 L 245.234375 204.257812 L 194.300781 204.257812 Z M 194.300781 160.667969 " clip-rule="nonzero"/></clipPath><clipPath id="6987470efc"><path d="M 187.34375 197.082031 L 196.476562 197.082031 L 196.476562 204.257812 L 187.34375 204.257812 Z M 187.34375 197.082031 " clip-rule="nonzero"/></clipPath><clipPath id="eded0b2b38"><path d="M 199 117.257812 L 209 117.257812 L 209 127 L 199 127 Z M 199 117.257812 " clip-rule="nonzero"/></clipPath></defs><rect x="-37.5" width="450" fill="#ffffff" y="-37.499999" height="449.999989" fill-opacity="1"/><rect x="-37.5" width="450" fill="#ffffff" y="-37.499999" height="449.999989" fill-opacity="1"/><g clip-path="url(#a8e89dd1e5)"><path fill="#000000" d="M 180.355469 204.011719 C 180.339844 204.007812 180.328125 204.003906 180.316406 204 C 180.324219 204.003906 180.335938 204.011719 180.351562 204.015625 C 180.304688 204.15625 180.261719 204.292969 180.21875 204.433594 C 179.667969 204.273438 179.117188 204.117188 178.5625 203.964844 C 162.855469 199.640625 146.195312 198.777344 129.734375 201.550781 C 132.730469 191.027344 135.726562 180.507812 138.71875 169.984375 C 139.992188 165.5 143.542969 162.027344 148.046875 160.835938 C 148.253906 160.78125 148.460938 160.726562 148.667969 160.671875 C 144.8125 172.402344 140.957031 184.132812 137.101562 195.863281 C 150.023438 194.214844 168.84375 197.175781 179.15625 202.410156 C 179.6875 202.675781 180.195312 202.953125 180.675781 203.230469 C 180.554688 203.484375 180.445312 203.746094 180.355469 204.011719 " fill-opacity="1" fill-rule="nonzero"/></g><path fill="#000000" d="M 161.417969 153.609375 C 161.339844 153.625 161.261719 153.644531 161.183594 153.660156 C 156.628906 154.660156 152.941406 158.003906 151.488281 162.4375 C 148.1875 172.507812 145.070312 182.007812 141.667969 192.394531 C 164.8125 191.3125 177.621094 199.511719 177.621094 199.511719 C 165.960938 189.246094 148.449219 189.289062 148.449219 189.289062 C 148.449219 189.289062 157.101562 165.175781 161.417969 153.609375 " fill-opacity="1" fill-rule="nonzero"/><path fill="#000000" d="M 173.707031 148.066406 C 173.679688 148.070312 173.652344 148.078125 173.625 148.082031 C 169.066406 149.070312 165.382812 152.425781 163.929688 156.859375 C 160.714844 166.671875 157.675781 175.941406 154.355469 186.070312 C 171.753906 188.332031 179.085938 198.84375 179.085938 198.84375 C 175.488281 188.261719 160.6875 184.042969 160.6875 184.042969 C 160.6875 184.042969 169.476562 159.398438 173.707031 148.066406 " fill-opacity="1" fill-rule="nonzero"/><g clip-path="url(#fde324ff16)"><path fill="#000000" d="M 187.59375 197.136719 C 183.886719 197.136719 180.679688 199.289062 179.15625 202.410156 C 179.011719 202.703125 178.882812 203.007812 178.769531 203.320312 C 178.695312 203.53125 178.625 203.746094 178.5625 203.964844 C 179.117188 204.117188 179.667969 204.273438 180.21875 204.433594 C 180.261719 204.292969 180.304688 204.15625 180.351562 204.015625 L 180.355469 204.011719 C 180.445312 203.746094 180.554688 203.484375 180.675781 203.230469 C 181.90625 200.648438 184.542969 198.859375 187.59375 198.859375 L 187.59375 197.136719 " fill-opacity="1" fill-rule="nonzero"/></g><path fill="#000000" d="M 198.074219 149.523438 C 203.882812 143.164062 206.296875 135.929688 204.953125 125.933594 C 208.566406 135.316406 208.714844 145.691406 201.949219 154.011719 C 190.453125 168.144531 169.511719 170.179688 168.625 186.652344 C 165.703125 167.007812 185.820312 162.933594 198.074219 149.523438 " fill-opacity="1" fill-rule="nonzero"/><path fill="#000000" d="M 180.699219 143.597656 C 180.699219 147.535156 183.425781 150.730469 186.792969 150.730469 C 190.15625 150.730469 192.886719 147.535156 192.886719 143.597656 C 192.886719 139.660156 190.15625 136.464844 186.792969 136.464844 C 183.425781 136.464844 180.699219 139.660156 180.699219 143.597656 " fill-opacity="1" fill-rule="nonzero"/><g clip-path="url(#c16efdf69d)"><path fill="#000000" d="M 194.636719 204.011719 C 194.65625 204.007812 194.667969 204.003906 194.675781 204 C 194.667969 204.003906 194.65625 204.011719 194.640625 204.015625 C 194.6875 204.15625 194.730469 204.292969 194.773438 204.433594 C 195.324219 204.273438 195.875 204.117188 196.429688 203.964844 C 212.136719 199.640625 228.796875 198.777344 245.257812 201.550781 C 242.261719 191.027344 239.269531 180.507812 236.273438 169.984375 C 235 165.5 231.453125 162.027344 226.945312 160.835938 C 226.738281 160.78125 226.53125 160.726562 226.324219 160.671875 C 230.179688 172.402344 234.035156 184.132812 237.890625 195.863281 C 224.96875 194.214844 206.148438 197.175781 195.835938 202.410156 C 195.304688 202.675781 194.796875 202.953125 194.316406 203.230469 C 194.4375 203.484375 194.546875 203.746094 194.636719 204.011719 " fill-opacity="1" fill-rule="nonzero"/></g><path fill="#000000" d="M 213.574219 153.609375 C 213.652344 153.625 213.730469 153.644531 213.808594 153.660156 C 218.367188 154.660156 222.050781 158.003906 223.503906 162.4375 C 226.804688 172.507812 229.921875 182.007812 233.324219 192.394531 C 210.179688 191.3125 197.371094 199.511719 197.371094 199.511719 C 209.035156 189.246094 226.546875 189.289062 226.546875 189.289062 C 226.546875 189.289062 217.890625 165.175781 213.574219 153.609375 " fill-opacity="1" fill-rule="nonzero"/><path fill="#000000" d="M 195.824219 198.84375 C 195.824219 198.84375 203.15625 188.332031 220.554688 186.070312 C 217.277344 176.074219 214.273438 166.914062 211.105469 157.242188 C 209.835938 159.15625 208.257812 160.878906 206.429688 162.363281 C 210.296875 173.042969 214.222656 184.042969 214.222656 184.042969 C 214.222656 184.042969 199.421875 188.261719 195.824219 198.84375 " fill-opacity="1" fill-rule="nonzero"/><g clip-path="url(#6987470efc)"><path fill="#000000" d="M 187.398438 198.859375 C 190.449219 198.859375 193.085938 200.648438 194.316406 203.230469 C 194.4375 203.484375 194.546875 203.746094 194.636719 204.011719 L 194.640625 204.015625 C 194.6875 204.15625 194.730469 204.292969 194.773438 204.433594 C 195.324219 204.273438 195.875 204.117188 196.429688 203.964844 C 196.367188 203.746094 196.296875 203.53125 196.222656 203.320312 C 196.109375 203.007812 195.980469 202.703125 195.835938 202.410156 C 194.3125 199.289062 191.105469 197.136719 187.398438 197.136719 L 187.398438 198.859375 " fill-opacity="1" fill-rule="nonzero"/></g><path fill="#000000" d="M 201.753906 164.585938 C 207.21875 161.476562 211.398438 156.617188 212.941406 150.609375 C 213.367188 158.535156 209.429688 165.507812 203.089844 169.804688 C 192.382812 177.0625 176.808594 177.082031 170.855469 187.375 C 173.300781 174.019531 190.007812 171.277344 201.753906 164.585938 " fill-opacity="1" fill-rule="nonzero"/><g clip-path="url(#eded0b2b38)"><path fill="#ffde59" d="M 199.316406 118.917969 C 202.820312 121.992188 202.964844 122.695312 200.9375 126.894531 C 204.011719 123.390625 204.714844 123.246094 208.914062 125.273438 C 205.410156 122.199219 205.265625 121.492188 207.292969 117.296875 C 204.21875 120.800781 203.511719 120.945312 199.316406 118.917969 " fill-opacity="1" fill-rule="nonzero"/></g><path fill="#ffde59" d="M 213.84375 134.320312 C 215.050781 134.484375 215.183594 134.617188 215.347656 135.824219 C 215.511719 134.617188 215.644531 134.484375 216.855469 134.320312 C 215.644531 134.15625 215.511719 134.023438 215.351562 132.816406 C 215.183594 134.023438 215.050781 134.15625 213.84375 134.320312 " fill-opacity="1" fill-rule="nonzero"/><path fill="#ffde59" d="M 192.765625 133.40625 C 195.21875 133.742188 195.492188 134.011719 195.824219 136.464844 C 196.160156 134.011719 196.429688 133.742188 198.882812 133.410156 C 196.429688 133.074219 196.160156 132.804688 195.828125 130.347656 C 195.492188 132.800781 195.222656 133.074219 192.765625 133.40625 " fill-opacity="1" fill-rule="nonzero"/><g fill="#000000" fill-opacity="1"><g transform="translate(83.640395, 240.584423)"><g><path d="M 1.78125 -27.703125 L 8.796875 -27.703125 L 8.796875 0 L 1.78125 0 Z M 1.78125 -27.703125 "/></g></g><g transform="translate(94.220319, 240.584423)"><g><path d="M 1.78125 -19.015625 L 8.515625 -19.015625 L 8.515625 -16.921875 C 9.335938 -17.816406 10.328125 -18.488281 11.484375 -18.9375 C 12.648438 -19.382812 13.867188 -19.609375 15.140625 -19.609375 C 17.804688 -19.609375 19.78125 -18.914062 21.0625 -17.53125 C 22.34375 -16.144531 22.984375 -14.265625 22.984375 -11.890625 L 22.984375 0 L 16.015625 0 L 16.015625 -10.96875 C 16.015625 -13.113281 15.035156 -14.1875 13.078125 -14.1875 C 12.179688 -14.1875 11.363281 -13.976562 10.625 -13.5625 C 9.882812 -13.15625 9.257812 -12.53125 8.75 -11.6875 L 8.75 0 L 1.78125 0 Z M 1.78125 -19.015625 "/></g></g></g><g fill="#000000" fill-opacity="1"><g transform="translate(118.787938, 240.584423)"><g><path d="M 10.03125 0.59375 C 7.675781 0.59375 5.894531 -0.0546875 4.6875 -1.359375 C 3.488281 -2.671875 2.890625 -4.460938 2.890625 -6.734375 L 2.890625 -14.1875 L 0.203125 -14.1875 L 0.203125 -19.015625 L 2.890625 -19.015625 L 2.890625 -24.71875 L 9.859375 -24.71875 L 9.859375 -19.015625 L 14.21875 -19.015625 L 14.21875 -14.1875 L 9.859375 -14.1875 L 9.859375 -7.6875 C 9.859375 -6.65625 10.050781 -5.914062 10.4375 -5.46875 C 10.820312 -5.019531 11.503906 -4.796875 12.484375 -4.796875 C 13.359375 -4.796875 14.226562 -5.035156 15.09375 -5.515625 L 15.09375 -0.3125 C 14.40625 0 13.671875 0.226562 12.890625 0.375 C 12.117188 0.519531 11.164062 0.59375 10.03125 0.59375 Z M 10.03125 0.59375 "/></g></g></g><g fill="#000000" fill-opacity="1"><g transform="translate(134.083267, 240.584423)"><g><path d="M 12.953125 0.59375 C 9.234375 0.59375 6.304688 -0.273438 4.171875 -2.015625 C 2.046875 -3.765625 0.984375 -6.238281 0.984375 -9.4375 C 0.984375 -12.570312 1.925781 -15.050781 3.8125 -16.875 C 5.707031 -18.695312 8.4375 -19.609375 12 -19.609375 C 14.28125 -19.609375 16.226562 -19.175781 17.84375 -18.3125 C 19.46875 -17.457031 20.695312 -16.285156 21.53125 -14.796875 C 22.363281 -13.304688 22.78125 -11.625 22.78125 -9.75 L 22.78125 -7.171875 L 7.609375 -7.171875 C 7.867188 -6.117188 8.523438 -5.351562 9.578125 -4.875 C 10.640625 -4.394531 12.082031 -4.15625 13.90625 -4.15625 C 15.144531 -4.15625 16.414062 -4.257812 17.71875 -4.46875 C 19.03125 -4.6875 20.164062 -4.976562 21.125 -5.34375 L 21.125 -0.75 C 20.144531 -0.351562 18.921875 -0.03125 17.453125 0.21875 C 15.984375 0.46875 14.484375 0.59375 12.953125 0.59375 Z M 16.203125 -11.53125 C 16.097656 -12.5625 15.675781 -13.363281 14.9375 -13.9375 C 14.195312 -14.519531 13.179688 -14.8125 11.890625 -14.8125 C 10.617188 -14.8125 9.613281 -14.515625 8.875 -13.921875 C 8.132812 -13.328125 7.710938 -12.53125 7.609375 -11.53125 Z M 16.203125 -11.53125 "/></g></g></g><g fill="#000000" fill-opacity="1"><g transform="translate(157.858381, 240.584423)"><g><path d="M 1.78125 -29.28125 L 8.75 -29.28125 L 8.75 0 L 1.78125 0 Z M 1.78125 -29.28125 "/></g></g></g><g fill="#000000" fill-opacity="1"><g transform="translate(168.398683, 240.584423)"><g><path d="M 1.78125 -29.28125 L 8.75 -29.28125 L 8.75 0 L 1.78125 0 Z M 1.78125 -29.28125 "/></g></g></g><g fill="#000000" fill-opacity="1"><g transform="translate(178.938985, 240.584423)"><g><path d="M 5.515625 -21.5625 C 4.453125 -21.5625 3.5625 -21.898438 2.84375 -22.578125 C 2.132812 -23.265625 1.78125 -24.140625 1.78125 -25.203125 C 1.78125 -26.234375 2.132812 -27.097656 2.84375 -27.796875 C 3.5625 -28.492188 4.453125 -28.84375 5.515625 -28.84375 C 6.535156 -28.84375 7.410156 -28.492188 8.140625 -27.796875 C 8.867188 -27.097656 9.234375 -26.234375 9.234375 -25.203125 C 9.234375 -24.171875 8.867188 -23.304688 8.140625 -22.609375 C 7.410156 -21.910156 6.535156 -21.5625 5.515625 -21.5625 Z M 2.015625 -19.015625 L 9 -19.015625 L 9 0 L 2.015625 0 Z M 2.015625 -19.015625 "/></g></g></g><g fill="#000000" fill-opacity="1"><g transform="translate(189.954793, 240.584423)"><g><path d="M 16.09375 0.59375 C 13.082031 0.59375 10.429688 0.015625 8.140625 -1.140625 C 5.859375 -2.304688 4.09375 -3.976562 2.84375 -6.15625 C 1.601562 -8.34375 0.984375 -10.898438 0.984375 -13.828125 C 0.984375 -16.765625 1.601562 -19.320312 2.84375 -21.5 C 4.09375 -23.675781 5.859375 -25.351562 8.140625 -26.53125 C 10.429688 -27.707031 13.082031 -28.296875 16.09375 -28.296875 C 18.070312 -28.296875 19.835938 -28.097656 21.390625 -27.703125 C 22.953125 -27.304688 24.394531 -26.679688 25.71875 -25.828125 L 25.71875 -19.171875 C 24.550781 -20.097656 23.234375 -20.769531 21.765625 -21.1875 C 20.304688 -21.613281 18.625 -21.828125 16.71875 -21.828125 C 14 -21.828125 11.898438 -21.117188 10.421875 -19.703125 C 8.941406 -18.296875 8.203125 -16.335938 8.203125 -13.828125 C 8.203125 -11.316406 8.945312 -9.347656 10.4375 -7.921875 C 11.9375 -6.492188 14.03125 -5.78125 16.71875 -5.78125 C 18.625 -5.78125 20.328125 -6.003906 21.828125 -6.453125 C 23.335938 -6.898438 24.738281 -7.613281 26.03125 -8.59375 L 26.03125 -1.984375 C 23.519531 -0.265625 20.207031 0.59375 16.09375 0.59375 Z M 16.09375 0.59375 "/></g></g></g><g fill="#000000" fill-opacity="1"><g transform="translate(216.97917, 240.584423)"><g><path d="M 1.78125 -29.28125 L 8.75 -29.28125 L 8.75 0 L 1.78125 0 Z M 1.78125 -29.28125 "/></g></g></g><g fill="#000000" fill-opacity="1"><g transform="translate(227.519472, 240.584423)"><g><path d="M 8.953125 0.59375 C 6.578125 0.59375 4.65625 0.0195312 3.1875 -1.125 C 1.71875 -2.28125 0.984375 -3.882812 0.984375 -5.9375 C 0.984375 -8.082031 1.691406 -9.726562 3.109375 -10.875 C 4.523438 -12.019531 6.550781 -12.59375 9.1875 -12.59375 C 10.21875 -12.59375 11.25 -12.476562 12.28125 -12.25 C 13.3125 -12.03125 14.195312 -11.738281 14.9375 -11.375 L 14.9375 -11.765625 C 14.9375 -13.796875 13.273438 -14.8125 9.953125 -14.8125 C 7.617188 -14.8125 5.488281 -14.363281 3.5625 -13.46875 L 3.5625 -18.265625 C 4.40625 -18.660156 5.515625 -18.984375 6.890625 -19.234375 C 8.265625 -19.484375 9.691406 -19.609375 11.171875 -19.609375 C 14.710938 -19.609375 17.382812 -18.898438 19.1875 -17.484375 C 21 -16.078125 21.90625 -14.109375 21.90625 -11.578125 L 21.90625 0 L 15.375 0 L 15.375 -1.625 C 14.65625 -0.9375 13.753906 -0.394531 12.671875 0 C 11.597656 0.394531 10.359375 0.59375 8.953125 0.59375 Z M 11.015625 -3.6875 C 11.835938 -3.6875 12.601562 -3.847656 13.3125 -4.171875 C 14.03125 -4.503906 14.570312 -4.9375 14.9375 -5.46875 L 14.9375 -7.125 C 13.800781 -7.894531 12.507812 -8.28125 11.0625 -8.28125 C 10.132812 -8.28125 9.414062 -8.082031 8.90625 -7.6875 C 8.40625 -7.289062 8.15625 -6.707031 8.15625 -5.9375 C 8.15625 -5.226562 8.398438 -4.675781 8.890625 -4.28125 C 9.378906 -3.882812 10.085938 -3.6875 11.015625 -3.6875 Z M 11.015625 -3.6875 "/></g></g></g><g fill="#000000" fill-opacity="1"><g transform="translate(251.017211, 240.584423)"><g><path d="M 9.984375 0.59375 C 8.453125 0.59375 6.851562 0.441406 5.1875 0.140625 C 3.519531 -0.160156 2.203125 -0.59375 1.234375 -1.15625 L 1.234375 -6.265625 C 2.316406 -5.628906 3.613281 -5.101562 5.125 -4.6875 C 6.644531 -4.28125 8.039062 -4.078125 9.3125 -4.078125 C 10.238281 -4.078125 10.910156 -4.144531 11.328125 -4.28125 C 11.753906 -4.414062 11.96875 -4.679688 11.96875 -5.078125 C 11.96875 -5.390625 11.828125 -5.644531 11.546875 -5.84375 C 11.273438 -6.039062 10.773438 -6.25 10.046875 -6.46875 C 9.316406 -6.695312 8.476562 -6.945312 7.53125 -7.21875 C 5.914062 -7.6875 4.644531 -8.171875 3.71875 -8.671875 C 2.800781 -9.179688 2.113281 -9.816406 1.65625 -10.578125 C 1.207031 -11.347656 0.984375 -12.3125 0.984375 -13.46875 C 0.984375 -15.53125 1.796875 -17.066406 3.421875 -18.078125 C 5.046875 -19.097656 7.273438 -19.609375 10.109375 -19.609375 C 11.484375 -19.609375 12.925781 -19.460938 14.4375 -19.171875 C 15.957031 -18.890625 17.101562 -18.507812 17.875 -18.03125 L 17.875 -13 C 17.082031 -13.53125 16.03125 -13.960938 14.71875 -14.296875 C 13.414062 -14.640625 12.195312 -14.8125 11.0625 -14.8125 C 10.15625 -14.8125 9.453125 -14.722656 8.953125 -14.546875 C 8.453125 -14.378906 8.203125 -14.085938 8.203125 -13.671875 C 8.203125 -13.273438 8.453125 -12.96875 8.953125 -12.75 C 9.453125 -12.539062 10.351562 -12.28125 11.65625 -11.96875 C 12.5 -11.757812 12.851562 -11.664062 12.71875 -11.6875 C 14.40625 -11.238281 15.710938 -10.734375 16.640625 -10.171875 C 17.566406 -9.617188 18.21875 -8.96875 18.59375 -8.21875 C 18.976562 -7.46875 19.171875 -6.507812 19.171875 -5.34375 C 19.171875 -3.519531 18.382812 -2.070312 16.8125 -1 C 15.25 0.0625 12.972656 0.59375 9.984375 0.59375 Z M 9.984375 0.59375 "/></g></g></g><g fill="#000000" fill-opacity="1"><g transform="translate(271.186434, 240.584423)"><g><path d="M 9.984375 0.59375 C 8.453125 0.59375 6.851562 0.441406 5.1875 0.140625 C 3.519531 -0.160156 2.203125 -0.59375 1.234375 -1.15625 L 1.234375 -6.265625 C 2.316406 -5.628906 3.613281 -5.101562 5.125 -4.6875 C 6.644531 -4.28125 8.039062 -4.078125 9.3125 -4.078125 C 10.238281 -4.078125 10.910156 -4.144531 11.328125 -4.28125 C 11.753906 -4.414062 11.96875 -4.679688 11.96875 -5.078125 C 11.96875 -5.390625 11.828125 -5.644531 11.546875 -5.84375 C 11.273438 -6.039062 10.773438 -6.25 10.046875 -6.46875 C 9.316406 -6.695312 8.476562 -6.945312 7.53125 -7.21875 C 5.914062 -7.6875 4.644531 -8.171875 3.71875 -8.671875 C 2.800781 -9.179688 2.113281 -9.816406 1.65625 -10.578125 C 1.207031 -11.347656 0.984375 -12.3125 0.984375 -13.46875 C 0.984375 -15.53125 1.796875 -17.066406 3.421875 -18.078125 C 5.046875 -19.097656 7.273438 -19.609375 10.109375 -19.609375 C 11.484375 -19.609375 12.925781 -19.460938 14.4375 -19.171875 C 15.957031 -18.890625 17.101562 -18.507812 17.875 -18.03125 L 17.875 -13 C 17.082031 -13.53125 16.03125 -13.960938 14.71875 -14.296875 C 13.414062 -14.640625 12.195312 -14.8125 11.0625 -14.8125 C 10.15625 -14.8125 9.453125 -14.722656 8.953125 -14.546875 C 8.453125 -14.378906 8.203125 -14.085938 8.203125 -13.671875 C 8.203125 -13.273438 8.453125 -12.96875 8.953125 -12.75 C 9.453125 -12.539062 10.351562 -12.28125 11.65625 -11.96875 C 12.5 -11.757812 12.851562 -11.664062 12.71875 -11.6875 C 14.40625 -11.238281 15.710938 -10.734375 16.640625 -10.171875 C 17.566406 -9.617188 18.21875 -8.96875 18.59375 -8.21875 C 18.976562 -7.46875 19.171875 -6.507812 19.171875 -5.34375 C 19.171875 -3.519531 18.382812 -2.070312 16.8125 -1 C 15.25 0.0625 12.972656 0.59375 9.984375 0.59375 Z M 9.984375 0.59375 "/></g></g></g><g fill="#000000" fill-opacity="1"><g transform="translate(132.445053, 253.257027)"><g><path d="M 1.359375 -5.828125 L 2.1875 -5.828125 L 3.296875 -1.28125 L 6.328125 -5.828125 L 7.203125 -5.828125 L 5.96875 0 L 5.140625 0 L 6.015625 -4.140625 L 3.25 0 L 2.84375 0 L 1.8125 -4.140625 L 0.9375 0 L 0.125 0 Z M 1.359375 -5.828125 "/></g></g></g><g fill="#000000" fill-opacity="1"><g transform="translate(139.536358, 253.257027)"><g><path d="M 2.03125 0.125 C 1.707031 0.125 1.414062 0.0546875 1.15625 -0.078125 C 0.894531 -0.210938 0.691406 -0.398438 0.546875 -0.640625 C 0.398438 -0.878906 0.328125 -1.164062 0.328125 -1.5 C 0.328125 -1.65625 0.34375 -1.816406 0.375 -1.984375 C 0.46875 -2.398438 0.632812 -2.769531 0.875 -3.09375 C 1.125 -3.414062 1.425781 -3.664062 1.78125 -3.84375 C 2.144531 -4.03125 2.53125 -4.125 2.9375 -4.125 C 3.644531 -4.125 4.144531 -3.90625 4.4375 -3.46875 L 4.546875 -4 L 5.390625 -4 L 4.53125 0 L 3.71875 0 L 3.84375 -0.578125 C 3.570312 -0.335938 3.289062 -0.160156 3 -0.046875 C 2.707031 0.0664062 2.382812 0.125 2.03125 0.125 Z M 2.359375 -0.546875 C 2.703125 -0.546875 3.019531 -0.632812 3.3125 -0.8125 C 3.613281 -0.988281 3.847656 -1.234375 4.015625 -1.546875 L 4.21875 -2.4375 C 4.1875 -2.738281 4.054688 -2.984375 3.828125 -3.171875 C 3.597656 -3.359375 3.3125 -3.453125 2.96875 -3.453125 C 2.5625 -3.453125 2.191406 -3.316406 1.859375 -3.046875 C 1.523438 -2.773438 1.3125 -2.421875 1.21875 -1.984375 C 1.1875 -1.796875 1.171875 -1.640625 1.171875 -1.515625 C 1.171875 -0.867188 1.566406 -0.546875 2.359375 -0.546875 Z M 2.359375 -0.546875 "/></g></g></g><g fill="#000000" fill-opacity="1"><g transform="translate(145.196136, 253.257027)"><g><path d="M 1.4375 -6.15625 L 2.28125 -6.15625 L 0.96875 0 L 0.125 0 Z M 1.40625 -2.03125 L 3.671875 -4 L 4.6875 -4 L 2.421875 -2.03125 L 4.03125 0 L 3 0 Z M 1.40625 -2.03125 "/></g></g></g><g fill="#000000" fill-opacity="1"><g transform="translate(150.098536, 253.257027)"><g><path d="M 2.296875 0.125 C 1.679688 0.125 1.195312 -0.015625 0.84375 -0.296875 C 0.488281 -0.578125 0.3125 -0.972656 0.3125 -1.484375 C 0.3125 -1.648438 0.332031 -1.816406 0.375 -1.984375 C 0.519531 -2.648438 0.8125 -3.171875 1.25 -3.546875 C 1.695312 -3.929688 2.28125 -4.125 3 -4.125 C 3.375 -4.125 3.691406 -4.054688 3.953125 -3.921875 C 4.222656 -3.785156 4.425781 -3.597656 4.5625 -3.359375 C 4.695312 -3.117188 4.765625 -2.847656 4.765625 -2.546875 C 4.765625 -2.398438 4.75 -2.242188 4.71875 -2.078125 L 4.625 -1.671875 L 1.109375 -1.671875 C 1.097656 -1.566406 1.09375 -1.492188 1.09375 -1.453125 C 1.09375 -1.128906 1.207031 -0.894531 1.4375 -0.75 C 1.675781 -0.613281 2.039062 -0.546875 2.53125 -0.546875 C 2.789062 -0.546875 3.054688 -0.566406 3.328125 -0.609375 C 3.597656 -0.660156 3.84375 -0.722656 4.0625 -0.796875 L 3.921875 -0.125 C 3.722656 -0.0507812 3.472656 0.00390625 3.171875 0.046875 C 2.867188 0.0976562 2.578125 0.125 2.296875 0.125 Z M 3.953125 -2.25 C 3.972656 -2.394531 3.984375 -2.5 3.984375 -2.5625 C 3.984375 -3.15625 3.597656 -3.453125 2.828125 -3.453125 C 2.410156 -3.453125 2.0625 -3.34375 1.78125 -3.125 C 1.5 -2.90625 1.316406 -2.613281 1.234375 -2.25 Z M 3.953125 -2.25 "/></g></g></g><g fill="#000000" fill-opacity="1"><g transform="translate(155.325532, 253.257027)"><g/></g></g><g fill="#000000" fill-opacity="1"><g transform="translate(158.571689, 253.257027)"><g><path d="M 1.4375 -6.15625 L 2.28125 -6.15625 L 0.96875 0 L 0.125 0 Z M 1.4375 -6.15625 "/></g></g></g><g fill="#000000" fill-opacity="1"><g transform="translate(160.66097, 253.257027)"><g><path d="M 2.296875 0.125 C 1.679688 0.125 1.195312 -0.015625 0.84375 -0.296875 C 0.488281 -0.578125 0.3125 -0.972656 0.3125 -1.484375 C 0.3125 -1.648438 0.332031 -1.816406 0.375 -1.984375 C 0.519531 -2.648438 0.8125 -3.171875 1.25 -3.546875 C 1.695312 -3.929688 2.28125 -4.125 3 -4.125 C 3.375 -4.125 3.691406 -4.054688 3.953125 -3.921875 C 4.222656 -3.785156 4.425781 -3.597656 4.5625 -3.359375 C 4.695312 -3.117188 4.765625 -2.847656 4.765625 -2.546875 C 4.765625 -2.398438 4.75 -2.242188 4.71875 -2.078125 L 4.625 -1.671875 L 1.109375 -1.671875 C 1.097656 -1.566406 1.09375 -1.492188 1.09375 -1.453125 C 1.09375 -1.128906 1.207031 -0.894531 1.4375 -0.75 C 1.675781 -0.613281 2.039062 -0.546875 2.53125 -0.546875 C 2.789062 -0.546875 3.054688 -0.566406 3.328125 -0.609375 C 3.597656 -0.660156 3.84375 -0.722656 4.0625 -0.796875 L 3.921875 -0.125 C 3.722656 -0.0507812 3.472656 0.00390625 3.171875 0.046875 C 2.867188 0.0976562 2.578125 0.125 2.296875 0.125 Z M 3.953125 -2.25 C 3.972656 -2.394531 3.984375 -2.5 3.984375 -2.5625 C 3.984375 -3.15625 3.597656 -3.453125 2.828125 -3.453125 C 2.410156 -3.453125 2.0625 -3.34375 1.78125 -3.125 C 1.5 -2.90625 1.316406 -2.613281 1.234375 -2.25 Z M 3.953125 -2.25 "/></g></g></g><g fill="#000000" fill-opacity="1"><g transform="translate(165.887965, 253.257027)"><g><path d="M 2.03125 0.125 C 1.707031 0.125 1.414062 0.0546875 1.15625 -0.078125 C 0.894531 -0.210938 0.691406 -0.398438 0.546875 -0.640625 C 0.398438 -0.878906 0.328125 -1.164062 0.328125 -1.5 C 0.328125 -1.65625 0.34375 -1.816406 0.375 -1.984375 C 0.46875 -2.398438 0.632812 -2.769531 0.875 -3.09375 C 1.125 -3.414062 1.425781 -3.664062 1.78125 -3.84375 C 2.144531 -4.03125 2.53125 -4.125 2.9375 -4.125 C 3.644531 -4.125 4.144531 -3.90625 4.4375 -3.46875 L 4.546875 -4 L 5.390625 -4 L 4.53125 0 L 3.71875 0 L 3.84375 -0.578125 C 3.570312 -0.335938 3.289062 -0.160156 3 -0.046875 C 2.707031 0.0664062 2.382812 0.125 2.03125 0.125 Z M 2.359375 -0.546875 C 2.703125 -0.546875 3.019531 -0.632812 3.3125 -0.8125 C 3.613281 -0.988281 3.847656 -1.234375 4.015625 -1.546875 L 4.21875 -2.4375 C 4.1875 -2.738281 4.054688 -2.984375 3.828125 -3.171875 C 3.597656 -3.359375 3.3125 -3.453125 2.96875 -3.453125 C 2.5625 -3.453125 2.191406 -3.316406 1.859375 -3.046875 C 1.523438 -2.773438 1.3125 -2.421875 1.21875 -1.984375 C 1.1875 -1.796875 1.171875 -1.640625 1.171875 -1.515625 C 1.171875 -0.867188 1.566406 -0.546875 2.359375 -0.546875 Z M 2.359375 -0.546875 "/></g></g></g><g fill="#000000" fill-opacity="1"><g transform="translate(171.547742, 253.257027)"><g><path d="M 0.96875 -4 L 1.796875 -4 L 1.625 -3.28125 C 1.84375 -3.519531 2.117188 -3.695312 2.453125 -3.8125 C 2.785156 -3.9375 3.148438 -4 3.546875 -4 L 3.40625 -3.34375 C 2.976562 -3.34375 2.597656 -3.269531 2.265625 -3.125 C 1.929688 -2.988281 1.671875 -2.769531 1.484375 -2.46875 L 0.96875 0 L 0.125 0 Z M 0.96875 -4 "/></g></g></g><g fill="#000000" fill-opacity="1"><g transform="translate(175.035266, 253.257027)"><g><path d="M 0.96875 -4 L 1.796875 -4 L 1.671875 -3.421875 C 1.910156 -3.660156 2.175781 -3.835938 2.46875 -3.953125 C 2.769531 -4.066406 3.070312 -4.125 3.375 -4.125 C 3.789062 -4.125 4.109375 -4.015625 4.328125 -3.796875 C 4.546875 -3.578125 4.65625 -3.289062 4.65625 -2.9375 C 4.65625 -2.832031 4.644531 -2.707031 4.625 -2.5625 L 4.078125 0 L 3.234375 0 L 3.765625 -2.46875 C 3.796875 -2.632812 3.8125 -2.773438 3.8125 -2.890625 C 3.8125 -3.085938 3.75 -3.226562 3.625 -3.3125 C 3.507812 -3.40625 3.3125 -3.453125 3.03125 -3.453125 C 2.757812 -3.453125 2.492188 -3.390625 2.234375 -3.265625 C 1.984375 -3.140625 1.75 -2.945312 1.53125 -2.6875 L 0.96875 0 L 0.125 0 Z M 0.96875 -4 "/></g></g></g><g fill="#000000" fill-opacity="1"><g transform="translate(180.195675, 253.257027)"><g><path d="M 1.625 -4.78125 C 1.507812 -4.78125 1.414062 -4.816406 1.34375 -4.890625 C 1.269531 -4.960938 1.234375 -5.050781 1.234375 -5.15625 C 1.234375 -5.320312 1.296875 -5.460938 1.421875 -5.578125 C 1.546875 -5.703125 1.6875 -5.765625 1.84375 -5.765625 C 1.96875 -5.765625 2.066406 -5.726562 2.140625 -5.65625 C 2.210938 -5.582031 2.25 -5.488281 2.25 -5.375 C 2.25 -5.207031 2.1875 -5.066406 2.0625 -4.953125 C 1.9375 -4.835938 1.789062 -4.78125 1.625 -4.78125 Z M 1.046875 -4 L 1.90625 -4 L 1.046875 0 L 0.1875 0 Z M 1.046875 -4 "/></g></g></g><g fill="#000000" fill-opacity="1"><g transform="translate(182.443095, 253.257027)"><g><path d="M 0.96875 -4 L 1.796875 -4 L 1.671875 -3.421875 C 1.910156 -3.660156 2.175781 -3.835938 2.46875 -3.953125 C 2.769531 -4.066406 3.070312 -4.125 3.375 -4.125 C 3.789062 -4.125 4.109375 -4.015625 4.328125 -3.796875 C 4.546875 -3.578125 4.65625 -3.289062 4.65625 -2.9375 C 4.65625 -2.832031 4.644531 -2.707031 4.625 -2.5625 L 4.078125 0 L 3.234375 0 L 3.765625 -2.46875 C 3.796875 -2.632812 3.8125 -2.773438 3.8125 -2.890625 C 3.8125 -3.085938 3.75 -3.226562 3.625 -3.3125 C 3.507812 -3.40625 3.3125 -3.453125 3.03125 -3.453125 C 2.757812 -3.453125 2.492188 -3.390625 2.234375 -3.265625 C 1.984375 -3.140625 1.75 -2.945312 1.53125 -2.6875 L 0.96875 0 L 0.125 0 Z M 0.96875 -4 "/></g></g></g><g fill="#000000" fill-opacity="1"><g transform="translate(187.603504, 253.257027)"><g><path d="M 1.8125 1.921875 C 1.539062 1.921875 1.28125 1.894531 1.03125 1.84375 C 0.78125 1.800781 0.570312 1.738281 0.40625 1.65625 L 0.5625 0.96875 C 0.9375 1.15625 1.398438 1.25 1.953125 1.25 C 2.460938 1.25 2.859375 1.132812 3.140625 0.90625 C 3.429688 0.675781 3.625 0.335938 3.71875 -0.109375 L 3.8125 -0.53125 C 3.351562 -0.09375 2.765625 0.125 2.046875 0.125 C 1.722656 0.125 1.429688 0.0546875 1.171875 -0.078125 C 0.910156 -0.210938 0.703125 -0.40625 0.546875 -0.65625 C 0.398438 -0.90625 0.328125 -1.191406 0.328125 -1.515625 C 0.328125 -1.671875 0.347656 -1.832031 0.390625 -2 C 0.515625 -2.644531 0.800781 -3.160156 1.25 -3.546875 C 1.707031 -3.929688 2.269531 -4.125 2.9375 -4.125 C 3.300781 -4.125 3.597656 -4.066406 3.828125 -3.953125 C 4.066406 -3.847656 4.273438 -3.671875 4.453125 -3.421875 L 4.578125 -4 L 5.390625 -4 L 4.578125 -0.203125 C 4.429688 0.492188 4.140625 1.019531 3.703125 1.375 C 3.265625 1.738281 2.632812 1.921875 1.8125 1.921875 Z M 2.359375 -0.546875 C 2.703125 -0.546875 3.023438 -0.632812 3.328125 -0.8125 C 3.628906 -1 3.859375 -1.242188 4.015625 -1.546875 L 4.21875 -2.453125 C 4.175781 -2.765625 4.039062 -3.007812 3.8125 -3.1875 C 3.59375 -3.363281 3.3125 -3.453125 2.96875 -3.453125 C 2.53125 -3.453125 2.15625 -3.316406 1.84375 -3.046875 C 1.53125 -2.785156 1.328125 -2.4375 1.234375 -2 C 1.203125 -1.863281 1.1875 -1.726562 1.1875 -1.59375 C 1.1875 -1.257812 1.285156 -1 1.484375 -0.8125 C 1.691406 -0.632812 1.984375 -0.546875 2.359375 -0.546875 Z M 2.359375 -0.546875 "/></g></g></g><g fill="#000000" fill-opacity="1"><g transform="translate(193.263281, 253.257027)"><g/></g></g><g fill="#000000" fill-opacity="1"><g transform="translate(196.509438, 253.257027)"><g><path d="M 1.109375 -3.34375 L 0.5 -3.34375 L 0.640625 -4 L 1.25 -4 L 1.421875 -4.78125 C 1.609375 -5.726562 2.1875 -6.203125 3.15625 -6.203125 C 3.382812 -6.203125 3.585938 -6.164062 3.765625 -6.09375 L 3.625 -5.390625 C 3.488281 -5.460938 3.335938 -5.5 3.171875 -5.5 C 2.898438 -5.5 2.691406 -5.4375 2.546875 -5.3125 C 2.398438 -5.1875 2.296875 -4.992188 2.234375 -4.734375 L 2.09375 -4 L 3.09375 -4 L 2.953125 -3.34375 L 1.953125 -3.34375 L 1.234375 0 L 0.40625 0 Z M 1.109375 -3.34375 "/></g></g></g><g fill="#000000" fill-opacity="1"><g transform="translate(199.614106, 253.257027)"><g><path d="M 1.6875 0.125 C 1.257812 0.125 0.925781 0.015625 0.6875 -0.203125 C 0.457031 -0.429688 0.34375 -0.726562 0.34375 -1.09375 C 0.34375 -1.1875 0.359375 -1.3125 0.390625 -1.46875 L 0.9375 -4 L 1.78125 -4 L 1.234375 -1.5 C 1.210938 -1.363281 1.203125 -1.25 1.203125 -1.15625 C 1.203125 -0.945312 1.265625 -0.789062 1.390625 -0.6875 C 1.515625 -0.59375 1.710938 -0.546875 1.984375 -0.546875 C 2.546875 -0.546875 3.039062 -0.796875 3.46875 -1.296875 L 4.046875 -4 L 4.890625 -4 L 4.046875 0 L 3.21875 0 L 3.34375 -0.5625 C 2.875 -0.101562 2.320312 0.125 1.6875 0.125 Z M 1.6875 0.125 "/></g></g></g><g fill="#000000" fill-opacity="1"><g transform="translate(204.774514, 253.257027)"><g><path d="M 0.96875 -4 L 1.796875 -4 L 1.671875 -3.421875 C 1.910156 -3.660156 2.175781 -3.835938 2.46875 -3.953125 C 2.769531 -4.066406 3.070312 -4.125 3.375 -4.125 C 3.789062 -4.125 4.109375 -4.015625 4.328125 -3.796875 C 4.546875 -3.578125 4.65625 -3.289062 4.65625 -2.9375 C 4.65625 -2.832031 4.644531 -2.707031 4.625 -2.5625 L 4.078125 0 L 3.234375 0 L 3.765625 -2.46875 C 3.796875 -2.632812 3.8125 -2.773438 3.8125 -2.890625 C 3.8125 -3.085938 3.75 -3.226562 3.625 -3.3125 C 3.507812 -3.40625 3.3125 -3.453125 3.03125 -3.453125 C 2.757812 -3.453125 2.492188 -3.390625 2.234375 -3.265625 C 1.984375 -3.140625 1.75 -2.945312 1.53125 -2.6875 L 0.96875 0 L 0.125 0 Z M 0.96875 -4 "/></g></g></g><g fill="#000000" fill-opacity="1"><g transform="translate(209.934923, 253.257027)"><g/></g></g><g fill="#000000" fill-opacity="1"><g transform="translate(213.181084, 253.257027)"><g><path d="M 2.03125 0.125 C 1.707031 0.125 1.414062 0.0546875 1.15625 -0.078125 C 0.894531 -0.210938 0.691406 -0.398438 0.546875 -0.640625 C 0.398438 -0.878906 0.328125 -1.164062 0.328125 -1.5 C 0.328125 -1.65625 0.34375 -1.816406 0.375 -1.984375 C 0.46875 -2.398438 0.632812 -2.769531 0.875 -3.09375 C 1.125 -3.414062 1.425781 -3.664062 1.78125 -3.84375 C 2.144531 -4.03125 2.53125 -4.125 2.9375 -4.125 C 3.644531 -4.125 4.144531 -3.90625 4.4375 -3.46875 L 4.546875 -4 L 5.390625 -4 L 4.53125 0 L 3.71875 0 L 3.84375 -0.578125 C 3.570312 -0.335938 3.289062 -0.160156 3 -0.046875 C 2.707031 0.0664062 2.382812 0.125 2.03125 0.125 Z M 2.359375 -0.546875 C 2.703125 -0.546875 3.019531 -0.632812 3.3125 -0.8125 C 3.613281 -0.988281 3.847656 -1.234375 4.015625 -1.546875 L 4.21875 -2.4375 C 4.1875 -2.738281 4.054688 -2.984375 3.828125 -3.171875 C 3.597656 -3.359375 3.3125 -3.453125 2.96875 -3.453125 C 2.5625 -3.453125 2.191406 -3.316406 1.859375 -3.046875 C 1.523438 -2.773438 1.3125 -2.421875 1.21875 -1.984375 C 1.1875 -1.796875 1.171875 -1.640625 1.171875 -1.515625 C 1.171875 -0.867188 1.566406 -0.546875 2.359375 -0.546875 Z M 2.359375 -0.546875 "/></g></g></g><g fill="#000000" fill-opacity="1"><g transform="translate(218.840866, 253.257027)"><g><path d="M 1.8125 1.921875 C 1.539062 1.921875 1.28125 1.894531 1.03125 1.84375 C 0.78125 1.800781 0.570312 1.738281 0.40625 1.65625 L 0.5625 0.96875 C 0.9375 1.15625 1.398438 1.25 1.953125 1.25 C 2.460938 1.25 2.859375 1.132812 3.140625 0.90625 C 3.429688 0.675781 3.625 0.335938 3.71875 -0.109375 L 3.8125 -0.53125 C 3.351562 -0.09375 2.765625 0.125 2.046875 0.125 C 1.722656 0.125 1.429688 0.0546875 1.171875 -0.078125 C 0.910156 -0.210938 0.703125 -0.40625 0.546875 -0.65625 C 0.398438 -0.90625 0.328125 -1.191406 0.328125 -1.515625 C 0.328125 -1.671875 0.347656 -1.832031 0.390625 -2 C 0.515625 -2.644531 0.800781 -3.160156 1.25 -3.546875 C 1.707031 -3.929688 2.269531 -4.125 2.9375 -4.125 C 3.300781 -4.125 3.597656 -4.066406 3.828125 -3.953125 C 4.066406 -3.847656 4.273438 -3.671875 4.453125 -3.421875 L 4.578125 -4 L 5.390625 -4 L 4.578125 -0.203125 C 4.429688 0.492188 4.140625 1.019531 3.703125 1.375 C 3.265625 1.738281 2.632812 1.921875 1.8125 1.921875 Z M 2.359375 -0.546875 C 2.703125 -0.546875 3.023438 -0.632812 3.328125 -0.8125 C 3.628906 -1 3.859375 -1.242188 4.015625 -1.546875 L 4.21875 -2.453125 C 4.175781 -2.765625 4.039062 -3.007812 3.8125 -3.1875 C 3.59375 -3.363281 3.3125 -3.453125 2.96875 -3.453125 C 2.53125 -3.453125 2.15625 -3.316406 1.84375 -3.046875 C 1.53125 -2.785156 1.328125 -2.4375 1.234375 -2 C 1.203125 -1.863281 1.1875 -1.726562 1.1875 -1.59375 C 1.1875 -1.257812 1.285156 -1 1.484375 -0.8125 C 1.691406 -0.632812 1.984375 -0.546875 2.359375 -0.546875 Z M 2.359375 -0.546875 "/></g></g></g><g fill="#000000" fill-opacity="1"><g transform="translate(224.500647, 253.257027)"><g><path d="M 2.03125 0.125 C 1.707031 0.125 1.414062 0.0546875 1.15625 -0.078125 C 0.894531 -0.210938 0.691406 -0.398438 0.546875 -0.640625 C 0.398438 -0.878906 0.328125 -1.164062 0.328125 -1.5 C 0.328125 -1.65625 0.34375 -1.816406 0.375 -1.984375 C 0.46875 -2.398438 0.632812 -2.769531 0.875 -3.09375 C 1.125 -3.414062 1.425781 -3.664062 1.78125 -3.84375 C 2.144531 -4.03125 2.53125 -4.125 2.9375 -4.125 C 3.644531 -4.125 4.144531 -3.90625 4.4375 -3.46875 L 4.546875 -4 L 5.390625 -4 L 4.53125 0 L 3.71875 0 L 3.84375 -0.578125 C 3.570312 -0.335938 3.289062 -0.160156 3 -0.046875 C 2.707031 0.0664062 2.382812 0.125 2.03125 0.125 Z M 2.359375 -0.546875 C 2.703125 -0.546875 3.019531 -0.632812 3.3125 -0.8125 C 3.613281 -0.988281 3.847656 -1.234375 4.015625 -1.546875 L 4.21875 -2.4375 C 4.1875 -2.738281 4.054688 -2.984375 3.828125 -3.171875 C 3.597656 -3.359375 3.3125 -3.453125 2.96875 -3.453125 C 2.5625 -3.453125 2.191406 -3.316406 1.859375 -3.046875 C 1.523438 -2.773438 1.3125 -2.421875 1.21875 -1.984375 C 1.1875 -1.796875 1.171875 -1.640625 1.171875 -1.515625 C 1.171875 -0.867188 1.566406 -0.546875 2.359375 -0.546875 Z M 2.359375 -0.546875 "/></g></g></g><g fill="#000000" fill-opacity="1"><g transform="translate(230.160428, 253.257027)"><g><path d="M 1.625 -4.78125 C 1.507812 -4.78125 1.414062 -4.816406 1.34375 -4.890625 C 1.269531 -4.960938 1.234375 -5.050781 1.234375 -5.15625 C 1.234375 -5.320312 1.296875 -5.460938 1.421875 -5.578125 C 1.546875 -5.703125 1.6875 -5.765625 1.84375 -5.765625 C 1.96875 -5.765625 2.066406 -5.726562 2.140625 -5.65625 C 2.210938 -5.582031 2.25 -5.488281 2.25 -5.375 C 2.25 -5.207031 2.1875 -5.066406 2.0625 -4.953125 C 1.9375 -4.835938 1.789062 -4.78125 1.625 -4.78125 Z M 1.046875 -4 L 1.90625 -4 L 1.046875 0 L 0.1875 0 Z M 1.046875 -4 "/></g></g></g><g fill="#000000" fill-opacity="1"><g transform="translate(232.407853, 253.257027)"><g><path d="M 0.96875 -4 L 1.796875 -4 L 1.671875 -3.421875 C 1.910156 -3.660156 2.175781 -3.835938 2.46875 -3.953125 C 2.769531 -4.066406 3.070312 -4.125 3.375 -4.125 C 3.789062 -4.125 4.109375 -4.015625 4.328125 -3.796875 C 4.546875 -3.578125 4.65625 -3.289062 4.65625 -2.9375 C 4.65625 -2.832031 4.644531 -2.707031 4.625 -2.5625 L 4.078125 0 L 3.234375 0 L 3.765625 -2.46875 C 3.796875 -2.632812 3.8125 -2.773438 3.8125 -2.890625 C 3.8125 -3.085938 3.75 -3.226562 3.625 -3.3125 C 3.507812 -3.40625 3.3125 -3.453125 3.03125 -3.453125 C 2.757812 -3.453125 2.492188 -3.390625 2.234375 -3.265625 C 1.984375 -3.140625 1.75 -2.945312 1.53125 -2.6875 L 0.96875 0 L 0.125 0 Z M 0.96875 -4 "/></g></g></g><g fill="#000000" fill-opacity="1"><g transform="translate(237.568267, 253.257027)"><g/></g></g><g fill="#000000" fill-opacity="1"><g transform="translate(240.814428, 253.257027)"><g><path d="M 1.28125 -5.828125 L 2.09375 -5.828125 L 1.21875 -1.671875 L 0.40625 -1.671875 Z M 0.421875 0.125 C 0.296875 0.125 0.195312 0.0859375 0.125 0.015625 C 0.0625 -0.0546875 0.03125 -0.148438 0.03125 -0.265625 C 0.03125 -0.421875 0.0859375 -0.554688 0.203125 -0.671875 C 0.328125 -0.796875 0.46875 -0.859375 0.625 -0.859375 C 0.75 -0.859375 0.847656 -0.820312 0.921875 -0.75 C 0.992188 -0.675781 1.03125 -0.582031 1.03125 -0.46875 C 1.03125 -0.300781 0.96875 -0.160156 0.84375 -0.046875 C 0.71875 0.0664062 0.578125 0.125 0.421875 0.125 Z M 0.421875 0.125 "/></g></g></g></svg>